<?xml version="1.0" standalone="no"?>
<!DOCTYPE svg PUBLIC "-//W3C//DTD SVG 20010904//EN"
 "http://www.w3.org/TR/2001/REC-SVG-20010904/DTD/svg10.dtd">
<svg version="1.0" xmlns="http://www.w3.org/2000/svg"
 width="430.000000pt" height="441.000000pt" viewBox="0 0 430.000000 441.000000"
 preserveAspectRatio="xMidYMid meet">

<g transform="translate(0.000000,441.000000) scale(0.100000,-0.100000)"
fill="#000000" stroke="none">
<path d="M220 4405 c-8 -2 -36 -7 -62 -10 -70 -9 -62 -29 8 -22 l57 6 -37 -33
c-44 -41 -45 -66 -5 -100 38 -32 90 -34 137 -6 26 16 32 26 32 54 0 18 -7 39
-15 46 -8 7 -15 9 -15 5 0 -4 -7 -2 -15 5 -24 20 -18 26 19 22 19 -2 42 0 52
6 14 8 10 11 -24 16 -73 11 -117 14 -132 11z m84 -78 c42 -30 -14 -85 -74 -72
-36 8 -45 31 -25 61 18 27 69 33 99 11z"/>
<path d="M514 4388 c9 -12 16 -30 16 -40 0 -12 8 -18 23 -18 25 0 47 -17 47
-37 0 -8 -13 -13 -32 -13 -18 0 -39 -4 -47 -9 -16 -10 34 -19 129 -24 53 -2
55 -3 65 -34 15 -53 51 -35 38 19 -7 29 -30 48 -59 48 -23 0 -54 24 -54 41 0
5 28 9 63 10 70 0 57 12 -28 26 l-50 8 60 3 c102 5 89 22 -18 22 -58 0 -97 4
-97 10 0 6 -16 10 -36 10 -34 0 -35 -1 -20 -22z"/>
<path d="M880 4387 c0 -60 94 -83 136 -34 27 31 22 57 -11 57 -18 0 -21 -4
-18 -24 4 -18 0 -26 -16 -31 -29 -9 -64 12 -58 36 4 14 0 19 -14 19 -13 0 -19
-7 -19 -23z"/>
<path d="M1077 4362 l5 -49 -98 -9 -99 -9 -3 -37 -3 -38 110 0 c60 0 116 3
125 6 18 7 22 59 6 69 -19 12 -10 35 14 35 31 0 50 22 34 38 -7 7 -22 12 -35
12 -35 0 -27 18 10 23 22 3 16 4 -20 5 l-52 2 6 -48z m3 -92 c26 -16 0 -25
-75 -25 -40 0 -77 4 -81 8 -15 15 21 27 81 27 33 0 67 -4 75 -10z"/>
<path d="M1306 4363 c-13 -26 -36 -61 -50 -76 -15 -16 -24 -33 -21 -38 7 -10
215 -13 215 -3 0 8 -101 154 -111 160 -5 2 -19 -17 -33 -43z m77 -85 c-5 -9
-93 -11 -93 -2 0 3 12 26 27 51 l26 45 23 -43 c12 -24 20 -47 17 -51z"/>
<path d="M1477 4404 c-9 -10 4 -34 19 -34 8 0 14 9 14 20 0 19 -19 27 -33 14z"/>
<path d="M1682 4346 c-34 -35 -62 -69 -62 -75 0 -24 27 -8 86 50 l61 60 48
-41 c63 -55 94 -74 103 -65 11 12 -127 135 -153 135 -14 0 -44 -23 -83 -64z"/>
<path d="M2037 4404 c-10 -10 3 -56 22 -78 56 -64 155 -59 210 10 26 34 28 74
3 74 -13 0 -18 -8 -17 -27 0 -32 -53 -73 -96 -73 -39 0 -92 47 -86 77 3 17 0
23 -13 23 -9 0 -20 -3 -23 -6z"/>
<path d="M2608 4398 c-3 -7 -37 -13 -91 -16 -85 -4 -114 -15 -86 -33 8 -5 52
-8 99 -8 84 2 85 2 27 9 -80 10 -83 20 -6 20 76 0 106 7 113 26 4 10 -3 14
-23 14 -16 0 -31 -5 -33 -12z"/>
<path d="M2806 4394 c-3 -9 -6 -52 -6 -96 l0 -81 121 6 c66 4 125 9 130 13 5
3 9 41 9 84 0 85 -13 109 -38 72 -13 -19 -23 -22 -93 -22 -68 0 -80 3 -89 20
-13 24 -26 26 -34 4z m214 -99 l0 -45 -95 0 -95 0 0 38 c0 21 3 42 7 45 3 4
46 7 95 7 l88 0 0 -45z"/>
<path d="M3183 4399 c10 -6 17 -22 17 -39 0 -32 2 -34 43 -44 16 -4 27 -2 27
4 0 5 -7 10 -16 10 -8 0 -12 5 -9 10 3 6 44 10 91 10 l84 0 0 -40 0 -40 -75 0
c-41 0 -86 5 -100 12 -31 14 -31 13 -40 -38 l-6 -42 116 -7 c64 -4 119 -4 122
-1 4 3 8 53 11 111 4 100 4 105 -16 105 -11 0 -22 -6 -25 -14 -7 -18 -144 -33
-159 -18 -7 7 1 13 28 17 71 12 70 13 -21 14 -66 0 -85 -2 -72 -10z m221 -158
c9 -13 -20 -21 -79 -21 -64 0 -93 9 -73 21 18 12 145 11 152 0z"/>
<path d="M3810 4304 c0 -80 3 -105 13 -102 8 3 13 36 15 106 2 86 0 102 -13
102 -12 0 -15 -17 -15 -106z"/>
<path d="M4018 4403 c34 -2 90 -2 125 0 34 2 6 3 -63 3 -69 0 -97 -1 -62 -3z"/>
<path d="M3582 4393 c-22 -4 -23 -17 -6 -70 2 -9 24 -13 61 -13 32 0 69 -3 81
-7 43 -11 1 -23 -81 -23 -71 0 -79 2 -84 20 -7 26 -23 26 -23 1 0 -24 36 -51
67 -51 12 0 27 -9 33 -20 10 -19 49 -27 63 -14 3 4 2 15 -4 25 -9 17 -6 19 30
19 45 0 56 10 46 47 -6 25 -8 26 -71 20 -52 -4 -67 -2 -71 10 -8 20 14 33 57
33 44 0 80 10 80 21 0 9 -134 10 -178 2z"/>
<path d="M1480 4303 c0 -26 4 -55 9 -62 16 -25 34 29 24 69 -14 54 -33 50 -33
-7z"/>
<path d="M4174 4324 c-8 -30 0 -146 11 -164 13 -22 25 11 25 71 0 101 -21 155
-36 93z"/>
<path d="M3960 4314 c0 -16 -3 -39 -6 -51 -6 -23 -5 -23 80 -23 56 0 85 4 81
10 -3 6 -30 10 -58 10 -57 1 -49 13 15 24 39 7 56 22 42 36 -5 5 -42 12 -81
16 l-73 7 0 -29z m120 -3 c0 -13 -55 -24 -80 -16 -37 12 -21 25 30 25 28 0 50
-4 50 -9z"/>
<path d="M2435 4311 c-39 -6 -39 -7 23 -14 35 -5 101 -5 145 -1 75 7 79 8 42
15 -47 9 -153 9 -210 0z"/>
<path d="M2420 4235 l0 -45 58 1 c31 1 84 4 117 8 59 6 60 7 60 36 0 28 -3 30
-50 37 -27 3 -80 7 -117 7 l-68 1 0 -45z m194 6 c8 -13 -19 -21 -72 -21 -62 0
-98 10 -80 21 18 12 145 11 152 0z"/>
<path d="M2144 4249 c-3 -6 1 -18 10 -27 19 -19 49 -7 54 22 3 12 -4 16 -27
16 -16 0 -33 -5 -37 -11z"/>
<path d="M1755 4211 c-9 -16 3 -31 26 -31 14 0 19 6 17 17 -4 20 -33 29 -43
14z"/>
<path d="M3947 4213 c-30 -8 -8 -23 34 -23 36 0 39 -2 30 -19 -13 -23 -5 -31
27 -31 21 0 24 4 20 25 -5 21 -2 25 21 25 39 0 58 16 29 23 -26 7 -133 7 -161
0z"/>
<path d="M2921 4201 c-17 -11 -10 -46 9 -46 17 0 26 33 13 46 -4 4 -14 4 -22
0z"/>
<path d="M621 4176 c-8 -10 -9 -16 -1 -21 15 -9 52 5 47 18 -6 18 -32 20 -46
3z"/>
<path d="M1062 4164 c-6 -10 -5 -34 1 -62 7 -32 6 -56 -4 -84 -9 -28 -9 -42
-2 -49 24 -24 33 4 33 101 0 96 -9 127 -28 94z"/>
<path d="M1253 4173 c-35 -4 -43 -17 -18 -26 10 -4 15 -26 17 -74 l3 -68 80
-3 c100 -4 194 6 174 19 -8 5 -48 9 -89 9 -155 1 -163 31 -12 44 111 9 138 26
43 26 -86 0 -151 11 -151 25 0 18 34 25 122 25 83 0 111 14 50 24 -39 6 -164
6 -219 -1z"/>
<path d="M324 4145 c-7 -30 3 -145 16 -164 11 -19 24 108 16 154 -8 41 -23 46
-32 10z"/>
<path d="M2616 4147 c-8 -29 -8 -131 0 -151 15 -38 24 -9 24 73 0 87 -11 124
-24 78z"/>
<path d="M2026 4151 c-6 -10 90 -25 104 -16 6 3 10 3 10 -2 0 -4 -20 -20 -43
-35 -50 -31 -83 -65 -74 -74 3 -4 31 10 61 30 30 20 61 39 69 42 8 3 43 -13
78 -35 35 -22 65 -38 68 -36 7 8 -21 35 -70 67 -27 17 -49 35 -49 40 0 5 4 7
9 3 14 -8 91 6 85 16 -7 12 -241 12 -248 0z"/>
<path d="M3626 4088 c-60 -61 -68 -72 -51 -76 15 -3 35 12 77 58 l57 62 55
-49 c31 -26 61 -58 67 -70 15 -27 39 -30 39 -6 0 22 -133 153 -156 153 -10 0
-49 -32 -88 -72z"/>
<path d="M1672 4143 c-28 -3 -42 -8 -39 -16 3 -8 36 -11 111 -10 l106 2 0 -25
c0 -29 16 -64 30 -64 6 0 10 25 10 55 l0 55 -44 0 c-24 0 -63 2 -87 4 -24 2
-63 2 -87 -1z"/>
<path d="M2436 4084 c-56 -78 -63 -94 -43 -94 14 0 46 33 74 76 11 18 15 16
52 -26 22 -25 43 -41 47 -37 9 9 -25 77 -59 120 l-23 27 -48 -66z"/>
<path d="M3195 4138 c-3 -8 -5 -55 -3 -104 l3 -89 45 -3 c31 -2 50 -9 61 -24
12 -15 22 -19 35 -13 18 7 18 7 -1 15 l-20 7 20 6 c11 3 41 9 68 13 l47 6 0
52 c0 28 3 67 6 87 8 44 3 46 -148 55 -90 6 -108 5 -113 -8z m213 -100 l3 -68
-90 0 c-49 0 -92 4 -95 8 -2 4 -2 36 1 70 l6 63 86 -3 86 -3 3 -67z"/>
<path d="M162 4098 c-16 -24 -37 -58 -46 -75 -26 -51 3 -42 44 12 19 25 37 45
42 45 4 0 14 -12 22 -28 16 -32 54 -68 62 -60 10 11 -70 148 -87 148 -4 0 -21
-19 -37 -42z"/>
<path d="M889 4101 c-37 -37 -37 -53 2 -85 43 -37 101 -36 127 2 37 53 36 65
-8 95 -39 27 -87 22 -121 -12z m111 -19 l23 -18 -28 -22 c-31 -25 -55 -28 -73
-10 -13 13 -16 50 -5 61 13 13 61 7 83 -11z"/>
<path d="M2797 4124 c-3 -4 0 -16 8 -28 8 -11 15 -31 15 -44 0 -12 7 -25 15
-28 23 -9 225 6 225 17 0 4 -43 10 -96 11 -78 2 -99 6 -108 20 -5 9 -8 19 -5
22 2 3 50 8 107 12 56 4 102 11 102 15 0 10 -253 12 -263 3z"/>
<path d="M497 4103 c-15 -4 -16 -6 -2 -26 8 -12 15 -30 15 -39 0 -34 75 -46
198 -32 28 4 52 10 52 14 0 5 -43 10 -95 12 -87 3 -130 16 -112 34 5 6 106 17
210 24 4 0 7 5 7 10 0 10 -236 13 -273 3z"/>
<path d="M2664 4085 c-7 -18 3 -35 21 -35 15 0 28 27 19 41 -8 14 -34 11 -40
-6z"/>
<path d="M4157 4081 c-2 -10 -15 -21 -28 -23 -35 -5 -38 -30 -3 -26 23 2 29
-1 29 -16 0 -16 -8 -19 -45 -20 -44 -1 -46 0 -69 47 l-24 48 -22 -21 c-26 -25
-61 -97 -51 -107 3 -4 19 8 34 25 30 36 66 36 75 1 4 -14 14 -19 39 -20 18 0
42 -4 53 -8 12 -5 -17 -10 -78 -14 -104 -6 -127 -15 -127 -53 0 -37 27 -44
149 -37 l112 6 -3 116 c-3 97 -6 116 -19 119 -10 2 -19 -5 -22 -17z m-2 -180
c11 -20 -36 -32 -93 -26 -72 8 -92 14 -92 26 0 12 177 12 185 0z"/>
<path d="M370 4076 c0 -15 37 -32 47 -22 3 3 3 12 0 21 -8 19 -47 20 -47 1z"/>
<path d="M1111 4081 c-19 -12 -6 -41 19 -41 25 0 38 29 19 41 -8 5 -16 9 -19
9 -3 0 -11 -4 -19 -9z"/>
<path d="M1751 4041 c-21 -13 -5 -41 23 -41 32 0 40 14 20 34 -18 18 -24 19
-43 7z"/>
<path d="M2121 4027 c-7 -9 -17 -15 -21 -12 -5 3 -11 1 -15 -5 -3 -5 -19 -10
-36 -10 -16 0 -29 -4 -29 -10 0 -6 56 -10 148 -10 98 0 142 3 132 10 -8 5 -25
10 -36 10 -13 0 -24 8 -27 20 -7 27 -33 25 -53 -4 -18 -28 -41 -25 -46 6 -3
20 -4 20 -17 5z"/>
<path d="M2924 3985 c-4 -9 -2 -21 4 -27 15 -15 44 -1 40 19 -4 23 -36 29 -44
8z"/>
<path d="M3726 3983 c-15 -15 -4 -44 20 -53 22 -9 25 -14 19 -42 -6 -26 -5
-30 10 -25 9 4 19 7 21 7 11 0 2 54 -12 76 -19 28 -48 47 -58 37z"/>
<path d="M622 3958 c3 -7 15 -15 27 -16 16 -3 22 1 19 10 -3 7 -15 15 -27 16
-16 3 -22 -1 -19 -10z"/>
<path d="M1313 3941 c-4 -15 -13 -21 -35 -21 -17 0 -27 -4 -23 -10 3 -5 20
-10 37 -10 l31 0 -27 -21 c-33 -26 -33 -44 -1 -65 48 -32 117 15 81 55 -9 10
-12 21 -7 27 5 5 -3 21 -21 38 -28 28 -29 28 -35 7z m41 -80 c9 -13 -4 -41
-18 -41 -18 0 -35 21 -29 36 6 16 39 19 47 5z"/>
<path d="M1478 3905 c-5 -48 2 -106 13 -99 5 3 9 32 9 64 0 65 -15 90 -22 35z"/>
<path d="M3669 3924 c-9 -11 -10 -20 -3 -32 20 -30 34 -25 34 12 0 39 -10 45
-31 20z"/>
<path d="M1720 3909 c-74 -44 -101 -89 -64 -103 9 -3 69 -6 135 -6 127 0 134
3 104 47 -15 21 -113 83 -131 83 -5 0 -25 -10 -44 -21z m95 -36 c51 -31 54
-38 23 -47 -33 -9 -35 -8 -41 14 -6 23 -47 28 -47 6 0 -21 -15 -28 -46 -20
l-28 7 40 33 c21 19 42 34 46 34 4 0 28 -12 53 -27z"/>
<path d="M2084 3915 c-4 -10 -20 -15 -45 -15 -40 0 -52 -13 -23 -24 9 -3 27
-6 42 -6 l26 0 -30 -31 -29 -31 24 -19 c30 -24 62 -24 92 0 l24 19 -23 31
c-22 30 -22 31 -3 31 28 0 52 11 45 21 -3 5 -18 9 -34 9 -15 0 -30 7 -34 15
-3 8 -10 15 -16 15 -6 0 -13 -7 -16 -15z m33 -86 c15 -15 5 -39 -17 -39 -21 0
-44 25 -35 40 8 13 38 13 52 -1z"/>
<path d="M2646 3914 c-9 -24 -7 -187 3 -202 12 -20 21 35 21 134 0 78 -10 105
-24 68z"/>
<path d="M2804 3915 c-8 -20 4 -68 19 -77 7 -4 22 -8 34 -8 22 0 53 -24 53
-41 0 -5 -25 -9 -57 -9 -66 0 -62 -10 10 -26 l52 -12 -42 -1 c-51 -1 -73 -9
-73 -27 0 -25 39 -34 149 -34 l111 0 0 33 c0 46 -18 65 -65 69 -56 4 -54 30 3
43 46 11 62 27 62 60 0 39 -13 47 -48 29 -25 -12 -47 -14 -97 -9 -36 4 -68 11
-71 16 -8 14 -34 10 -40 -6z m169 -31 c64 -11 41 -24 -43 -24 -102 0 -108 19
-10 28 8 1 32 -1 53 -4z m52 -174 c4 -6 -13 -10 -44 -10 -28 0 -51 5 -51 10 0
6 20 10 44 10 25 0 48 -4 51 -10z"/>
<path d="M2250 3821 c0 -63 4 -102 11 -107 28 -17 40 64 14 86 -11 9 -13 16
-5 24 17 17 13 96 -5 96 -12 0 -15 -18 -15 -99z"/>
<path d="M736 3887 c-14 -53 -3 -173 15 -161 5 3 9 43 9 89 0 82 -12 117 -24
72z"/>
<path d="M2417 3903 c-4 -3 -7 -19 -7 -35 0 -15 -9 -37 -20 -48 -11 -11 -20
-22 -20 -24 0 -5 183 5 189 10 9 8 19 90 11 97 -4 5 -19 2 -32 -7 -25 -16 -82
-13 -94 5 -6 11 -18 12 -27 2z m116 -63 c15 -13 -11 -21 -48 -14 -35 6 -45 18
-22 27 14 6 59 -2 70 -13z"/>
<path d="M101 3891 c-11 -7 -10 -11 7 -20 18 -9 22 -22 24 -79 l3 -67 118 1
c75 0 122 5 129 12 9 9 -13 12 -94 12 -84 0 -108 3 -119 16 -21 26 6 34 113
34 53 0 100 4 103 10 9 15 -31 20 -127 17 -90 -2 -104 2 -95 28 5 12 24 15 94
15 99 0 143 8 121 21 -17 11 -259 11 -277 0z"/>
<path d="M520 3881 c0 -5 19 -11 43 -13 59 -4 57 -30 -3 -42 -50 -11 -60 -19
-60 -56 0 -47 36 -60 119 -44 45 9 38 19 -21 30 -58 10 -74 30 -31 39 72 15
78 19 78 55 l0 35 -62 3 c-37 2 -63 -1 -63 -7z"/>
<path d="M970 3872 c-15 -9 -47 -35 -73 -57 -45 -38 -47 -40 -25 -47 31 -8
226 -8 258 1 23 6 20 10 -46 64 -39 31 -75 57 -80 56 -5 0 -20 -8 -34 -17z
m90 -67 c0 -12 -15 -15 -72 -15 l-73 0 25 21 c41 33 62 38 93 23 15 -8 27 -21
27 -29z"/>
<path d="M3200 3860 c-15 -9 -16 -9 35 -25 11 -3 15 -19 15 -60 0 -55 0 -55
-31 -55 -17 0 -28 -4 -24 -10 7 -12 241 -12 270 0 17 6 14 9 -17 15 l-38 7 0
54 c0 51 2 54 24 54 30 0 42 15 20 24 -25 10 -238 7 -254 -4z m165 -75 l0 -50
-40 0 c-39 0 -40 1 -43 39 -5 58 2 68 45 64 l38 -3 0 -50z"/>
<path d="M3573 3833 c-13 -2 -23 -11 -23 -19 0 -16 26 -19 35 -4 3 6 33 10 66
10 38 0 58 4 54 10 -6 10 -88 12 -132 3z"/>
<path d="M3733 3821 c-13 -11 -23 -22 -23 -25 0 -11 35 -5 54 9 11 9 41 15 69
15 29 0 46 4 42 10 -11 18 -118 11 -142 -9z"/>
<path d="M3960 3755 l0 -65 114 0 113 0 6 36 c6 36 -1 94 -11 94 -3 0 -14 -8
-24 -17 -27 -25 -154 -25 -172 0 -22 28 -26 20 -26 -48z m193 -12 c4 -3 2 -12
-4 -20 -8 -8 -34 -13 -78 -13 -69 0 -98 10 -87 29 8 12 158 16 169 4z"/>
<path d="M1270 3740 l0 -40 115 0 115 0 0 40 0 40 -115 0 -115 0 0 -40z m164
21 c16 -3 31 -12 34 -19 3 -10 -15 -12 -79 -10 -52 2 -84 7 -86 15 -7 19 71
27 131 14z"/>
<path d="M1666 3753 c-5 -16 -2 -31 6 -39 26 -26 238 -30 238 -5 0 5 -43 12
-96 16 -88 6 -96 9 -104 31 -13 32 -36 31 -44 -3z"/>
<path d="M2456 3765 c-9 -9 -16 -20 -16 -25 0 -17 41 -31 71 -25 25 6 30 11
27 33 -2 22 -9 28 -34 30 -19 2 -38 -3 -48 -13z"/>
<path d="M3700 3766 c0 -4 10 -11 23 -16 17 -7 7 -9 -41 -9 -48 -1 -64 -5 -69
-17 -3 -9 0 -20 8 -25 20 -12 229 -12 229 1 0 6 -28 11 -62 11 l-63 1 55 9
c55 10 80 23 66 36 -9 9 -146 18 -146 9z"/>
<path d="M2066 3742 c-8 -14 20 -34 41 -30 28 5 22 33 -9 36 -14 2 -29 -1 -32
-6z"/>
<path d="M970 3726 c0 -11 9 -16 26 -16 31 0 28 23 -4 28 -15 2 -22 -2 -22
-12z"/>
<path d="M1618 3282 c-23 -5 -22 -31 2 -62 14 -19 16 -28 7 -38 -8 -10 -7 -16
2 -21 16 -10 8 -26 -62 -129 -73 -106 -177 -202 -218 -202 -19 0 -59 -33 -59
-49 0 -6 17 -11 41 -11 52 0 145 48 201 104 44 43 132 159 164 214 19 34 20
34 74 27 251 -30 423 -33 630 -10 74 8 151 17 170 20 34 6 36 4 74 -56 77
-122 153 -189 270 -238 64 -26 80 -30 98 -20 l22 12 -25 19 c-13 11 -44 31
-70 43 -74 38 -151 108 -204 186 -48 71 -50 76 -50 143 0 59 -3 71 -18 74 -12
3 -23 -9 -36 -39 -11 -25 -27 -44 -38 -45 -204 -27 -348 -38 -533 -38 -262 -1
-323 6 -338 38 -14 31 -83 83 -104 78z"/>
<path d="M1744 3042 c-6 -4 -22 -32 -34 -62 -13 -30 -43 -81 -67 -114 -35 -45
-43 -64 -38 -83 10 -41 52 -27 97 32 46 60 94 201 77 222 -13 15 -19 16 -35 5z"/>
<path d="M1939 3039 c-11 -5 -19 -29 -24 -66 -3 -32 -17 -82 -30 -111 -20 -44
-22 -57 -12 -73 43 -68 107 43 107 185 0 58 -14 81 -41 65z"/>
<path d="M2127 3027 c-3 -8 -4 -64 -2 -123 4 -101 6 -110 27 -121 36 -20 48 0
48 81 0 97 -20 170 -47 174 -11 2 -23 -3 -26 -11z"/>
<path d="M2325 3018 c-3 -13 10 -70 32 -133 40 -116 38 -114 97 -106 16 2 -2
69 -44 166 -32 71 -47 95 -61 95 -11 0 -21 -9 -24 -22z"/>
<path d="M2521 3013 c0 -16 14 -48 29 -73 16 -25 38 -61 49 -80 11 -19 33 -50
48 -68 26 -30 31 -32 56 -23 15 6 27 17 27 25 0 8 -39 67 -87 130 -89 120
-124 144 -122 89z"/>
<path d="M2675 2673 c-30 -7 -41 -21 -28 -34 6 -6 9 -19 6 -28 -3 -9 -7 -21
-8 -28 -3 -9 -13 -9 -36 -3 -65 19 -130 -35 -144 -121 -13 -76 46 -131 104
-98 24 14 30 14 46 3 27 -20 72 -17 95 6 24 24 26 42 3 33 -11 -5 -15 -2 -11
8 2 8 20 65 38 128 34 110 34 113 15 127 -19 14 -42 16 -80 7z m-63 -198 c-12
-39 -24 -61 -35 -63 -12 -3 -17 4 -17 23 0 31 26 96 43 107 23 14 26 -8 9 -67z"/>
<path d="M1177 2630 c-16 -12 -52 -70 -82 -130 -35 -71 -61 -111 -75 -115 -11
-3 -20 -13 -20 -21 0 -12 11 -14 53 -12 45 3 52 6 49 22 -2 10 -1 29 2 42 5
20 13 24 46 24 l39 0 -10 -30 c-6 -16 -15 -30 -20 -30 -5 0 -9 -7 -9 -15 0
-12 15 -15 71 -15 67 0 71 1 66 21 -3 11 5 57 19 101 41 138 32 167 -54 175
-38 4 -52 1 -75 -17z m47 -49 c3 -5 -1 -29 -10 -55 -14 -41 -19 -46 -45 -46
-16 0 -29 5 -29 10 0 12 27 69 42 88 12 14 34 16 42 3z"/>
<path d="M1540 2583 c-8 -3 -22 -12 -31 -20 -14 -12 -18 -11 -29 2 -14 17 -72
20 -101 4 -15 -8 -18 -14 -10 -23 12 -14 -38 -202 -65 -243 -8 -12 -14 -25
-14 -28 0 -3 32 -5 71 -5 64 0 70 2 64 19 -3 10 -2 29 3 42 8 20 15 23 55 20
60 -3 101 21 127 74 25 51 26 106 3 133 -20 23 -50 33 -73 25z m-25 -101 c-9
-50 -32 -92 -50 -92 -8 0 -15 3 -15 8 0 17 31 106 41 118 19 23 31 4 24 -34z"/>
<path d="M1996 2580 c-83 -25 -125 -136 -73 -195 38 -44 126 -46 167 -5 33 33
26 50 -15 39 -39 -11 -75 2 -75 26 0 11 13 15 50 15 41 0 56 5 75 25 42 41 26
80 -40 95 -47 11 -51 11 -89 0z m40 -74 c-21 -32 -40 -34 -30 -3 10 34 25 50
37 38 7 -7 4 -19 -7 -35z"/>
<path d="M2859 2581 c-66 -21 -99 -66 -99 -134 0 -88 125 -132 190 -67 33 33
26 50 -15 39 -39 -11 -75 2 -75 26 0 11 13 15 49 15 50 0 88 21 92 50 3 33 -2
50 -18 58 -28 15 -95 22 -124 13z m41 -55 c0 -24 -25 -54 -37 -43 -8 8 17 67
28 67 5 0 9 -11 9 -24z"/>
<path d="M1681 2571 c-11 -7 -12 -13 -4 -23 8 -10 5 -32 -12 -87 -13 -40 -29
-79 -34 -84 -22 -22 -9 -27 64 -27 73 0 86 5 65 26 -12 12 27 144 43 144 7 0
18 -9 25 -20 14 -24 45 -26 62 -5 17 20 16 65 -1 76 -20 13 -63 11 -77 -3 -9
-9 -15 -9 -24 0 -14 14 -87 16 -107 3z"/>
<path d="M2191 2571 c-8 -5 -11 -16 -7 -26 8 -23 -31 -157 -51 -172 -14 -11
-14 -13 -1 -18 8 -3 41 -5 73 -3 l57 3 2 40 c2 46 34 117 55 123 15 5 14 -6
-10 -91 -13 -45 -12 -50 6 -63 29 -22 82 -17 107 8 20 20 21 23 5 26 -21 4
-20 0 -2 52 18 51 19 102 3 118 -19 19 -79 14 -104 -9 l-22 -21 -7 21 c-5 17
-14 21 -48 21 -23 0 -48 -4 -56 -9z"/>
<path d="M1433 2150 c-31 -13 -63 -68 -63 -107 0 -38 38 -73 80 -73 27 0 80
33 80 51 0 14 -22 11 -41 -7 -10 -9 -26 -14 -35 -10 -22 9 -13 81 14 108 17
18 21 18 35 4 8 -9 17 -21 20 -28 6 -18 24 0 32 34 6 25 5 27 -21 27 -16 0
-40 2 -54 5 -14 3 -35 1 -47 -4z"/>
<path d="M1630 2147 c-34 -17 -70 -74 -70 -112 0 -40 26 -65 69 -65 70 0 121
52 121 124 0 57 -60 84 -120 53z m57 -50 c-9 -55 -35 -107 -53 -107 -13 0 -16
7 -11 33 9 55 35 107 53 107 13 0 16 -7 11 -33z"/>
<path d="M2252 2144 c-12 -8 -36 -44 -52 -80 -16 -35 -36 -67 -44 -70 -26 -10
-18 -24 14 -24 25 0 30 4 30 25 0 26 17 39 44 33 14 -3 14 -6 2 -30 l-15 -28
45 0 c39 0 44 2 44 23 0 13 7 48 16 77 16 53 16 55 -6 72 -27 22 -49 23 -78 2z
m28 -33 c0 -24 -21 -61 -35 -61 -18 0 -19 11 -3 45 11 24 38 35 38 16z"/>
<path d="M2634 2150 c-38 -15 -74 -68 -74 -110 0 -48 21 -70 66 -70 71 0 124
55 124 128 0 51 -57 76 -116 52z m51 -57 c-11 -58 -32 -103 -49 -103 -19 0
-20 20 -5 75 13 47 26 65 46 65 12 0 14 -8 8 -37z"/>
<path d="M1795 2140 c5 -8 -22 -110 -41 -157 -4 -9 8 -13 41 -13 39 0 46 3 41
16 -10 25 4 65 22 62 11 -2 16 -14 16 -38 1 -33 3 -35 36 -35 34 0 35 1 32 35
-2 19 -8 41 -14 48 -8 9 -6 12 6 12 20 0 32 46 16 65 -14 17 -166 22 -155 5z
m95 -34 c0 -13 -6 -26 -14 -29 -19 -8 -24 -1 -18 28 6 32 32 33 32 1z"/>
<path d="M2005 2140 c5 -8 -22 -110 -41 -157 -4 -10 13 -13 70 -13 64 0 77 3
86 19 23 44 2 55 -37 19 -30 -28 -48 -14 -33 27 8 21 14 25 22 17 18 -18 28
-15 37 11 11 28 3 41 -15 27 -20 -18 -33 -8 -23 18 9 24 49 31 49 8 0 -8 5
-18 11 -22 13 -8 29 13 29 39 0 15 -10 17 -81 17 -50 0 -78 -4 -74 -10z"/>
<path d="M2385 2140 c7 -11 -23 -130 -36 -144 -15 -17 -10 -26 16 -26 18 0 24
5 23 18 -3 23 13 92 21 92 3 0 17 -24 31 -53 37 -77 58 -72 86 21 13 40 28 80
35 88 9 12 6 14 -20 14 -19 0 -30 -4 -26 -10 4 -6 1 -27 -6 -47 l-12 -37 -24
47 c-21 43 -27 47 -59 47 -21 0 -33 -4 -29 -10z"/>
<path d="M1125 2101 c-101 -46 -110 -184 -17 -248 26 -17 82 -18 1047 -23 898
-4 1020 -7 1020 -20 0 -13 -55 -15 -422 -18 l-423 -2 0 -60 0 -60 435 0 c481
0 477 -1 515 63 40 66 19 155 -46 198 -28 18 -66 19 -1040 19 -865 0 -1013 2
-1023 14 -19 23 18 36 103 36 l76 0 0 60 0 60 -92 0 c-68 0 -104 -5 -133 -19z"/>
<path d="M1920 1786 c0 -9 -13 -16 -32 -19 -18 -2 1 -4 42 -4 41 0 62 2 47 4
-16 3 -31 11 -34 19 -7 18 -23 18 -23 0z"/>
<path d="M2020 1715 c0 -50 4 -85 10 -85 6 0 10 18 10 40 0 35 3 40 23 41 l22
0 -22 9 c-18 7 -23 17 -23 45 0 19 -4 35 -10 35 -6 0 -10 -35 -10 -85z"/>
<path d="M2193 1783 l68 -4 -3 -32 -3 -32 -80 -6 c-78 -5 -77 -5 30 -6 61 0
102 1 93 4 -13 3 -18 15 -18 44 l0 39 -77 -2 -78 -2 68 -3z"/>
<path d="M1887 1733 c-4 -3 -7 -17 -7 -30 0 -43 88 -58 104 -17 11 30 -12 54
-53 54 -21 0 -41 -3 -44 -7z m80 -19 c8 -21 -21 -44 -47 -37 -19 5 -27 33 -13
46 13 13 54 7 60 -9z"/>
<path d="M2193 1663 c50 -3 67 -8 67 -18 0 -12 -15 -15 -65 -15 -63 0 -65 -1
-65 -25 0 -25 1 -25 83 -23 l82 2 -72 3 c-56 3 -73 7 -73 18 0 12 15 15 65 15
63 0 65 1 65 25 0 25 -1 25 -77 23 l-78 -2 68 -3z"/>
<path d="M1900 1610 l0 -30 78 2 77 2 -67 3 c-65 4 -68 5 -68 28 0 14 -4 25
-10 25 -5 0 -10 -13 -10 -30z"/>
<path d="M1472 765 c-40 -21 -49 -35 -32 -45 9 -5 19 -5 26 1 13 11 24 -9 24
-46 0 -29 17 -42 23 -18 14 51 17 75 11 98 -7 27 -17 30 -52 10z"/>
<path d="M3217 702 c-42 -42 -77 -81 -77 -85 0 -4 78 -7 173 -7 l172 1 -89 84
c-50 47 -92 85 -96 85 -3 0 -40 -35 -83 -78z m143 -17 l54 -55 -109 0 -109 0
54 55 c30 30 55 55 55 55 0 0 25 -25 55 -55z"/>
<path d="M3745 768 c-2 -7 -3 -24 -2 -38 2 -22 -2 -25 -25 -22 -14 2 -28 -1
-31 -5 -9 -15 10 -36 35 -38 20 -1 23 -7 24 -43 2 -73 20 -72 30 1 11 82 -13
199 -31 145z"/>
<path d="M3810 711 c0 -76 8 -131 20 -131 11 0 23 133 15 169 -4 17 -13 31
-21 31 -11 0 -14 -16 -14 -69z"/>
<path d="M330 746 c-15 -40 -13 -159 3 -181 22 -28 28 -5 28 96 0 97 -13 132
-31 85z"/>
<path d="M1295 716 c-19 -30 -35 -60 -35 -66 0 -22 21 -8 46 30 15 22 28 40
30 40 1 0 12 -15 23 -34 26 -42 51 -54 51 -25 0 12 -8 23 -19 26 -12 3 -23 18
-28 41 -5 19 -14 37 -20 39 -7 3 -28 -20 -48 -51z"/>
<path d="M1776 762 c-2 -4 -7 -24 -11 -45 -6 -28 -15 -41 -39 -52 -17 -8 -51
-33 -76 -55 -36 -31 -41 -39 -25 -39 11 0 42 16 69 37 27 20 57 43 66 50 14
11 27 4 90 -47 40 -33 78 -58 83 -54 13 8 -59 80 -110 110 -45 26 -53 43 -28
63 8 7 15 16 15 20 0 11 -28 21 -34 12z"/>
<path d="M2810 691 c0 -99 3 -101 129 -101 133 0 144 14 16 20 l-110 5 -5 74
c-3 47 -10 76 -17 79 -10 3 -13 -17 -13 -77z"/>
<path d="M3545 758 c-18 -12 -15 -13 30 -18 42 -4 50 -8 53 -27 3 -19 -1 -23
-25 -23 -15 0 -35 -5 -43 -10 -13 -9 -13 -11 0 -20 8 -5 27 -10 42 -10 24 0
27 -4 30 -37 2 -25 8 -39 19 -41 15 -3 16 8 11 90 -2 51 -6 95 -8 97 -9 11
-92 10 -109 -1z"/>
<path d="M3925 760 c-19 -7 -18 -8 5 -14 14 -3 44 -7 68 -8 l43 -3 -66 -44
c-59 -40 -79 -61 -57 -61 5 0 34 16 66 35 67 40 85 42 117 16 l24 -19 -28 -22
c-15 -12 -27 -30 -27 -41 0 -16 7 -19 54 -19 70 0 106 12 57 20 -34 5 -62 32
-48 47 4 4 17 2 27 -5 23 -14 40 -16 40 -3 0 5 -27 26 -60 46 -33 20 -60 41
-60 46 0 5 17 9 38 9 45 0 72 14 47 24 -24 9 -216 6 -240 -4z"/>
<path d="M137 753 c-30 -5 -27 -23 4 -23 10 0 19 -4 19 -10 0 -5 -11 -10 -24
-10 -27 0 -45 -35 -28 -52 23 -23 171 -21 157 3 -4 5 -23 10 -43 10 l-37 1 35
7 c47 9 60 18 60 41 0 35 -51 47 -143 33z"/>
<path d="M540 751 c-34 -6 -35 -8 -38 -53 l-3 -48 120 0 121 0 0 55 0 55 -82
-1 c-46 -1 -99 -4 -118 -8z m160 -41 c18 -29 3 -35 -81 -35 -74 0 -84 2 -87
19 -6 29 17 37 91 34 46 -3 71 -8 77 -18z"/>
<path d="M2058 753 c-37 -4 -48 -15 -28 -28 6 -3 10 -16 10 -29 0 -40 18 -46
134 -46 60 0 107 2 105 5 -3 2 -45 9 -93 14 -98 12 -130 26 -100 48 12 9 51
13 116 13 54 0 98 4 98 9 0 16 -142 24 -242 14z"/>
<path d="M955 740 c-35 -14 -68 -58 -68 -90 0 -64 85 -111 162 -90 43 11 91
60 91 91 0 69 -109 121 -185 89z m117 -41 c41 -29 39 -73 -4 -99 -39 -24 -69
-25 -108 -5 -53 27 -51 82 3 116 36 22 65 19 109 -12z"/>
<path d="M2646 734 c-8 -20 -8 -138 0 -158 14 -36 24 1 24 85 0 82 -9 111 -24
73z"/>
<path d="M2427 734 c-15 -15 -7 -63 12 -74 23 -12 111 -13 129 -1 8 5 12 22
10 42 l-3 34 -70 3 c-39 1 -74 0 -78 -4z m113 -30 c21 -21 0 -36 -46 -32 -29
2 -40 8 -42 22 -7 36 52 43 88 10z"/>
<path d="M1653 724 c-29 -13 -10 -25 35 -22 26 2 47 8 47 13 0 11 -62 17 -82
9z"/>
<path d="M1816 721 c-7 -10 27 -21 66 -21 31 0 45 15 22 24 -24 9 -82 7 -88
-3z"/>
<path d="M1282 618 c-7 -7 -12 -27 -12 -45 l0 -33 120 0 c108 0 120 2 130 19
24 47 15 58 -57 64 -104 10 -168 8 -181 -5z m190 -23 c37 -14 4 -25 -77 -25
-83 0 -113 12 -84 32 15 10 131 4 161 -7z"/>
<path d="M3975 621 c-5 -5 -23 -11 -40 -13 -49 -5 -30 -23 27 -26 56 -2 85 8
74 27 -5 8 -13 8 -26 1 -14 -8 -19 -6 -22 6 -2 10 -6 12 -13 5z"/>
<path d="M105 610 c3 -5 22 -10 42 -10 31 0 34 -2 23 -16 -11 -12 -11 -18 2
-31 21 -20 41 -7 35 23 -4 21 -1 24 29 24 18 0 36 5 39 10 4 6 -27 10 -85 10
-58 0 -89 -4 -85 -10z"/>
<path d="M490 612 c-39 -12 -7 -24 53 -20 49 3 52 2 52 -22 0 -16 7 -26 19
-28 26 -5 42 13 28 31 -18 21 -3 28 50 21 33 -5 48 -3 48 5 0 7 -24 11 -69 11
-37 0 -88 2 -112 5 -24 2 -55 1 -69 -3z"/>
<path d="M2480 605 c11 -13 7 -15 -29 -15 -26 0 -40 -4 -36 -10 3 -5 44 -10
91 -10 49 0 84 4 84 10 0 6 -16 10 -35 10 -24 0 -35 5 -35 15 0 10 -10 15 -26
15 -22 0 -25 -2 -14 -15z"/>
<path d="M2035 601 l-20 -8 20 -6 c24 -7 150 -12 220 -9 34 2 45 5 35 11 -21
12 -231 22 -255 12z"/>
<path d="M3289 554 c-10 -13 -10 -17 2 -25 17 -11 21 -11 38 0 17 11 7 41 -12
41 -8 0 -20 -7 -28 -16z"/>
<path d="M2920 541 c0 -27 19 -36 37 -18 18 18 9 37 -18 37 -12 0 -19 -7 -19
-19z"/>
<path d="M1761 536 c-8 -10 -9 -16 -1 -21 15 -9 52 5 47 18 -6 18 -32 20 -46
3z"/>
<path d="M4001 524 c-40 -33 -39 -59 2 -81 l32 -18 -50 -3 c-57 -4 -88 -22
-36 -22 20 0 30 -4 26 -10 -4 -6 -1 -17 5 -25 10 -13 8 -15 -14 -15 -14 0 -26
-4 -26 -10 0 -6 40 -10 99 -10 95 0 100 -1 103 -22 4 -29 25 -34 33 -8 10 33
-9 44 -83 50 -55 4 -67 8 -70 24 -4 17 12 35 31 36 4 0 15 -9 24 -20 21 -24
43 -26 43 -5 0 11 12 15 46 15 27 0 43 4 39 10 -3 6 -26 10 -51 10 -48 0 -52
5 -28 38 20 29 10 58 -26 77 -41 21 -64 19 -99 -11z m73 -10 c20 -8 21 -38 1
-54 -31 -26 -82 13 -56 44 14 17 30 20 55 10z"/>
<path d="M1000 510 c0 -23 31 -27 49 -7 14 17 4 27 -26 27 -16 0 -23 -6 -23
-20z"/>
<path d="M2037 514 c-4 -4 -7 -27 -7 -51 0 -36 4 -45 23 -52 17 -7 22 -16 21
-42 -1 -29 -5 -34 -27 -37 -43 -5 -31 -20 22 -27 52 -7 141 2 141 15 0 4 -20
11 -44 14 -45 7 -98 46 -62 46 9 0 19 -7 22 -15 7 -18 34 -20 34 -2 0 7 -5 18
-12 25 -8 8 -5 14 15 21 22 9 27 17 27 45 0 40 -8 66 -21 66 -5 0 -9 -6 -9
-14 0 -32 -81 -36 -101 -5 -8 11 -17 17 -22 13z m116 -69 c-4 -15 -86 -12 -91
3 -3 10 8 12 44 10 27 -2 48 -7 47 -13z"/>
<path d="M2267 499 c-9 -33 -7 -169 2 -193 7 -18 8 -18 14 5 9 33 7 169 -2
193 -7 18 -8 18 -14 -5z"/>
<path d="M720 401 c0 -63 4 -102 11 -107 19 -11 29 18 29 82 0 80 -9 124 -26
124 -11 0 -14 -22 -14 -99z"/>
<path d="M280 458 c0 -38 -8 -52 -33 -61 -20 -8 -14 -27 8 -27 8 0 17 -12 21
-27 10 -46 13 -53 23 -53 16 0 22 39 19 120 -2 62 -6 75 -20 78 -14 3 -18 -4
-18 -30z"/>
<path d="M353 474 c-6 -18 3 -152 13 -178 15 -40 24 -8 24 89 0 88 -3 105 -15
105 -9 0 -18 -7 -22 -16z"/>
<path d="M2646 478 c-3 -7 -6 -22 -8 -33 -2 -12 -11 -20 -23 -20 -11 0 -21 -8
-23 -18 -3 -14 1 -18 18 -15 13 2 27 -4 34 -14 20 -31 -8 -43 -112 -46 -136
-5 -143 -22 -9 -22 65 0 107 -4 107 -10 0 -6 -38 -10 -92 -10 -103 0 -129 -9
-112 -37 9 -15 28 -18 111 -21 55 -1 110 2 124 7 18 7 -4 10 -83 10 -139 1
-143 19 -5 23 l102 3 0 104 c0 75 -4 106 -12 108 -7 3 -15 -1 -17 -9z"/>
<path d="M2806 474 c-3 -9 -6 -38 -6 -65 l0 -50 125 3 c154 4 172 23 22 23
-82 1 -102 4 -104 15 -11 87 -23 111 -37 74z"/>
<path d="M3810 461 c0 -33 -15 -47 -43 -42 -14 2 -18 -3 -15 -21 2 -17 9 -23
28 -23 21 0 25 -6 28 -35 2 -19 7 -39 12 -44 13 -13 24 40 25 119 0 58 -3 70
-17 73 -14 3 -18 -3 -18 -27z"/>
<path d="M130 465 c-7 -8 -21 -15 -32 -15 -25 0 -18 -24 8 -28 35 -7 35 -18 0
-67 -19 -27 -33 -52 -30 -56 5 -9 34 -1 34 10 1 3 11 19 24 34 l23 28 26 -40
c15 -23 32 -41 37 -41 20 0 9 33 -25 81 l-34 48 31 3 c39 4 51 28 14 28 -15 0
-29 7 -32 15 -4 8 -12 15 -19 15 -7 0 -18 -7 -25 -15z"/>
<path d="M515 471 c-10 -17 14 -22 60 -15 27 4 45 2 45 -4 0 -5 -27 -13 -61
-16 -55 -6 -60 -9 -57 -29 3 -20 10 -22 77 -25 42 -2 79 2 85 8 7 7 -10 10
-57 10 -85 0 -88 18 -5 22 52 2 63 6 66 22 2 10 -2 22 -10 27 -18 12 -135 11
-143 0z"/>
<path d="M1086 465 c-8 -21 -8 -148 0 -169 11 -28 30 -17 40 21 7 27 15 39 33
43 36 8 38 29 3 36 -25 5 -32 13 -39 42 -9 39 -27 52 -37 27z"/>
<path d="M1256 471 c-18 -7 -18 -8 -2 -14 10 -4 46 -7 80 -7 35 0 84 -3 109
-6 l46 -7 3 -71 c4 -100 22 -89 26 15 l3 86 -77 7 c-97 8 -163 7 -188 -3z"/>
<path d="M1666 447 c-7 -36 2 -94 14 -102 5 -3 56 -2 114 2 l106 6 0 44 c0 24
-5 54 -11 66 l-12 21 -8 -22 c-8 -20 -15 -22 -90 -22 -72 0 -81 2 -86 20 -8
30 -20 24 -27 -13z m193 -36 c8 -5 11 -16 8 -25 -9 -23 -165 -23 -174 0 -3 9
0 20 8 25 18 11 140 11 158 0z"/>
<path d="M2426 454 c-3 -9 -6 -36 -6 -60 l0 -44 68 0 c72 0 100 13 80 37 -8
10 -8 20 1 39 15 33 14 34 -10 34 -18 0 -20 -5 -17 -42 l3 -43 -48 -3 c-45 -3
-48 -2 -45 20 2 14 12 24 26 28 23 5 23 5 -7 28 -36 26 -37 26 -45 6z"/>
<path d="M3155 451 c-3 -5 4 -12 15 -16 17 -6 20 -15 20 -76 l0 -69 113 1
c119 0 172 10 126 22 -13 4 -61 7 -105 7 -57 0 -85 4 -93 14 -16 19 5 26 82
27 77 1 157 14 137 22 -8 3 -56 7 -107 9 -50 2 -95 6 -99 11 -17 17 17 28 109
34 53 3 97 10 97 15 0 11 -287 10 -295 -1z"/>
<path d="M3623 418 c-17 -24 -38 -58 -47 -75 -14 -29 -15 -33 -1 -33 8 0 15 3
15 8 0 4 15 25 33 46 l34 39 26 -19 c15 -10 27 -26 27 -35 0 -19 27 -45 37
-35 13 13 -66 146 -86 146 -4 0 -21 -19 -38 -42z"/>
<path d="M892 443 c-19 -7 -4 -23 24 -23 13 0 24 -3 24 -6 0 -4 -16 -28 -36
-55 -32 -44 -37 -69 -14 -69 4 0 22 23 39 51 l32 50 33 -48 c30 -44 66 -68 66
-45 0 5 -18 32 -40 59 -41 52 -42 63 -4 63 28 0 40 16 18 24 -18 7 -123 7
-142 -1z"/>
<path d="M502 351 c-11 -7 -10 -10 3 -15 9 -3 25 -6 36 -6 14 0 19 -7 19 -25
0 -18 5 -25 19 -25 26 0 36 17 21 35 -10 12 -8 15 11 15 37 0 69 11 63 21 -7
11 -155 12 -172 0z"/>
<path d="M2903 331 c-5 -21 -31 -31 -82 -31 -22 0 -31 -4 -25 -9 17 -17 274
-18 274 -1 0 6 -20 10 -44 10 -57 0 -76 8 -76 31 0 26 -40 26 -47 0z"/>
<path d="M1759 309 c-10 -6 -11 -11 -2 -20 13 -13 45 -9 50 7 5 15 -31 24 -48
13z"/>
<path d="M1187 253 c-4 -3 -7 -18 -6 -32 l0 -26 16 23 c9 12 26 22 39 22 13 0
24 5 24 10 0 11 -63 14 -73 3z"/>
<path d="M1336 247 c-11 -8 -18 -26 -18 -42 0 -37 25 -55 77 -55 46 0 75 22
75 58 0 41 -94 68 -134 39z m85 -27 c39 -21 7 -65 -39 -53 -22 5 -38 36 -27
53 8 13 41 13 66 0z"/>
<path d="M3294 249 c-3 -6 -2 -15 4 -21 15 -15 46 -5 50 15 3 12 -3 17 -22 17
-14 0 -28 -5 -32 -11z"/>
<path d="M1836 228 c-3 -13 -6 -58 -6 -101 0 -69 2 -78 18 -75 15 3 17 15 17
90 0 88 -16 134 -29 86z"/>
<path d="M1907 243 c-4 -3 -7 -48 -7 -100 0 -86 1 -93 20 -93 18 0 20 7 20 89
0 62 -4 92 -13 100 -8 6 -17 8 -20 4z"/>
<path d="M160 155 l-85 -85 180 0 180 0 -90 85 c-49 46 -92 84 -95 85 -3 0
-43 -38 -90 -85z m165 -24 l39 -41 -108 0 -107 0 30 37 c37 45 70 64 91 53 8
-5 33 -27 55 -49z"/>
<path d="M1096 177 c-8 -80 1 -129 23 -125 30 6 27 188 -3 188 -9 0 -15 -21
-20 -63z"/>
<path d="M897 216 c-4 -10 -7 -49 -7 -87 l0 -69 75 0 75 0 0 48 c0 94 -19 154
-33 102 -8 -29 -69 -28 -89 2 -13 20 -15 20 -21 4z m106 -86 c-3 -63 -75 -85
-81 -24 -4 39 21 66 57 62 23 -3 26 -7 24 -38z"/>
<path d="M1690 212 c0 -15 -6 -22 -19 -22 -26 0 -51 -10 -51 -21 0 -5 16 -9
35 -9 19 0 35 -3 35 -7 0 -5 -14 -26 -30 -47 -34 -45 -37 -56 -15 -56 9 0 24
13 33 30 9 16 20 30 24 30 4 0 16 -13 28 -30 12 -16 28 -30 36 -30 19 0 18 2
-16 57 l-31 48 28 5 c32 6 36 23 7 28 -10 2 -29 13 -41 25 l-23 20 0 -21z"/>
<path d="M2247 223 c-4 -3 -7 -35 -7 -70 0 -65 13 -82 30 -39 6 17 18 26 37
28 41 5 45 38 4 38 -24 0 -32 5 -37 25 -6 25 -15 31 -27 18z"/>
<path d="M3787 223 c-4 -3 -7 -16 -7 -29 0 -39 -11 -54 -40 -54 -46 0 -80 17
-80 40 0 28 -33 26 -45 -2 -6 -13 -28 -31 -50 -42 l-39 -18 37 -34 c44 -41 98
-46 132 -14 31 29 67 30 80 2 5 -12 15 -22 22 -22 9 0 13 22 13 78 0 74 -9
110 -23 95z m-132 -106 c10 -8 15 -19 11 -25 -11 -18 -44 -14 -55 7 -17 31 10
42 44 18z"/>
<path d="M490 210 c-13 -8 -12 -14 5 -47 18 -34 25 -39 70 -45 57 -8 185 1
185 12 0 5 -43 10 -95 12 -53 2 -99 8 -106 15 -24 24 3 33 102 33 54 0 99 4
99 9 0 20 -231 30 -260 11z"/>
<path d="M2063 213 c-26 -10 -11 -21 38 -27 42 -6 49 -9 39 -21 -17 -20 -8
-69 13 -73 15 -3 17 5 17 62 l0 66 -47 -1 c-27 0 -54 -3 -60 -6z"/>
<path d="M2842 212 c-78 -6 -32 -22 63 -22 52 0 97 -4 100 -10 4 -6 -16 -10
-52 -11 -32 0 -76 -3 -98 -7 -33 -6 -40 -12 -43 -33 -3 -22 2 -27 29 -33 66
-13 229 -2 229 15 0 5 -49 9 -110 9 -60 0 -110 4 -110 9 0 5 39 12 88 16 119
8 132 12 132 35 0 12 -8 21 -22 25 -31 6 -154 11 -206 7z"/>
<path d="M3426 213 c-3 -3 -6 -42 -6 -85 0 -61 3 -78 14 -78 20 0 29 51 21
110 -7 49 -16 66 -29 53z"/>
<path d="M3850 135 c0 -69 3 -85 15 -85 12 0 15 14 15 69 0 72 -6 101 -21 101
-5 0 -9 -38 -9 -85z"/>
<path d="M3980 210 c14 -4 60 -8 103 -9 49 -1 76 -5 72 -11 -3 -5 -43 -10 -88
-10 -88 0 -114 -9 -104 -34 5 -13 22 -16 84 -15 77 1 78 1 38 13 l-40 12 63 5
c66 6 88 18 79 43 -5 13 -25 16 -119 15 -72 -1 -104 -4 -88 -9z"/>
<path d="M3196 191 c-14 -22 7 -33 57 -29 43 2 52 0 55 -14 4 -21 -33 -38 -83
-38 -38 0 -49 -11 -40 -40 5 -15 15 -20 43 -19 34 0 35 1 13 10 -41 16 -10 31
80 38 55 4 84 10 87 19 3 10 -5 13 -29 10 -29 -2 -35 1 -37 19 -2 12 -9 27
-17 33 -20 16 -121 25 -129 11z"/>
<path d="M1783 153 c-18 -6 -16 -40 1 -46 8 -3 20 1 27 9 10 12 9 18 -2 28 -8
8 -20 12 -26 9z"/>
<path d="M1251 131 c-8 -5 -10 -14 -6 -21 6 -9 25 -11 66 -6 56 5 59 5 56 -17
-1 -16 4 -23 22 -25 28 -4 45 16 29 35 -8 10 1 13 46 13 31 0 56 4 56 9 0 18
-242 29 -269 12z"/>
<path d="M2410 132 c0 -10 103 -22 183 -22 46 0 47 -1 47 -30 0 -20 5 -30 16
-30 12 0 14 9 12 43 l-3 42 -127 3 c-71 1 -128 -1 -128 -6z"/>
<path d="M3970 100 c-15 -5 28 -8 113 -9 90 -1 136 3 132 9 -7 12 -208 12
-245 0z"/>
<path d="M490 60 c-10 -6 35 -10 135 -9 93 0 142 4 130 9 -28 12 -247 12 -265
0z"/>
<path d="M2070 60 c0 -6 45 -10 115 -10 70 0 115 4 115 10 0 6 -45 10 -115 10
-70 0 -115 -4 -115 -10z"/>
<path d="M3950 60 c0 -6 47 -10 123 -9 92 1 112 3 82 10 -58 11 -205 11 -205
-1z"/>
</g>
</svg>
