<?xml version="1.0" standalone="no"?>
<!DOCTYPE svg PUBLIC "-//W3C//DTD SVG 20010904//EN"
 "http://www.w3.org/TR/2001/REC-SVG-20010904/DTD/svg10.dtd">
<svg version="1.0" xmlns="http://www.w3.org/2000/svg"
 width="434.000000pt" height="436.000000pt" viewBox="0 0 434.000000 436.000000"
 preserveAspectRatio="xMidYMid meet">

<g transform="translate(0.000000,436.000000) scale(0.100000,-0.100000)"
fill="#000000" stroke="none">
<path d="M0 2190 l0 -2170 83 0 83 0 39 41 c64 66 68 66 121 9 l47 -50 74 0
c56 0 74 3 70 13 -2 6 -7 22 -11 35 l-7 22 135 0 c79 0 137 -4 141 -10 4 -6
-31 -10 -99 -10 -108 0 -137 -10 -101 -37 14 -9 60 -13 176 -13 l157 0 6 45
c8 47 20 58 29 25 8 -30 72 -28 88 2 12 22 12 22 20 3 4 -11 8 -32 8 -47 1
-24 5 -28 31 -28 29 0 30 2 30 44 0 46 16 69 31 45 5 -8 9 -31 9 -51 l0 -38
128 1 c96 1 119 3 95 10 -55 16 -58 80 -6 100 34 13 98 -3 112 -29 14 -27 -5
-60 -41 -71 -25 -7 4 -9 115 -10 92 -1 147 3 147 9 0 6 -17 10 -37 10 -36 1
-37 2 -19 15 11 8 28 15 38 15 10 0 18 7 18 15 0 19 14 19 29 1 7 -8 23 -17
36 -20 32 -8 32 -26 0 -26 -14 0 -25 -4 -25 -10 0 -14 43 -13 58 2 8 8 15 8
25 -1 12 -9 16 -7 21 11 3 13 6 35 6 51 0 15 4 27 9 27 13 0 21 -26 21 -66 0
-23 5 -34 14 -34 11 0 16 14 18 48 2 34 7 47 18 47 11 0 16 -13 18 -47 l3 -48
92 0 c60 1 98 5 109 14 24 17 14 24 -44 32 -69 9 -59 24 17 24 l65 0 0 -35 c0
-32 2 -35 30 -35 27 0 30 3 30 33 0 17 4 38 9 46 11 18 31 5 31 -20 0 -14 7
-19 28 -19 35 0 45 -9 31 -27 -10 -11 29 -13 229 -13 133 0 243 4 246 9 3 5
54 13 113 17 122 9 104 21 -34 23 -48 0 -83 5 -83 11 0 12 229 13 248 1 8 -5
12 -17 10 -27 -2 -15 -15 -20 -58 -25 -31 -3 23 -6 123 -7 131 -2 178 1 175
10 -2 6 -27 11 -59 12 -41 1 -54 5 -54 16 0 35 123 19 140 -18 8 -17 18 -22
47 -22 33 0 38 3 38 23 0 12 5 29 10 37 9 13 11 13 20 0 5 -8 10 -25 10 -37 0
-21 5 -23 59 -23 73 0 90 6 102 36 11 29 39 32 39 4 0 -24 35 -40 85 -40 33 0
34 1 37 43 4 54 20 54 31 0 11 -58 37 -59 37 -2 0 52 24 48 28 -4 3 -35 5 -37
38 -37 21 0 42 8 54 20 17 17 33 20 105 20 50 0 85 4 85 10 0 6 -36 10 -87 10
-49 0 -95 5 -103 10 -10 7 21 10 96 10 90 0 114 -3 125 -16 21 -26 -14 -44
-85 -44 -43 0 -57 -3 -46 -10 8 -5 70 -10 138 -10 l122 0 0 2170 0 2170 -67 0
-68 0 0 -79 c0 -77 -7 -103 -22 -87 -5 4 -10 43 -12 87 -3 75 -4 79 -27 79
-12 0 -27 -7 -32 -16 -5 -10 -28 -18 -55 -21 -26 -3 -47 -10 -47 -16 0 -5 12
-7 29 -4 32 7 71 -1 71 -14 0 -5 -36 -9 -80 -9 l-80 0 0 40 0 40 -54 0 -54 0
-4 -55 c-8 -90 -26 -90 -35 -1 -5 47 -9 56 -25 56 -12 0 -19 -6 -17 -17 4 -41
0 -45 -40 -41 -39 3 -39 3 -34 -24 5 -25 3 -28 -20 -28 -15 0 -30 8 -36 19 -6
10 -25 21 -42 25 -40 8 -59 23 -59 47 0 16 -8 19 -45 19 l-45 0 0 -66 c0 -64
-1 -66 -22 -60 -13 3 -67 6 -120 6 l-98 0 0 33 c0 51 11 60 56 48 48 -13 154
-14 154 -2 0 5 3 16 6 25 5 14 -14 16 -180 16 l-186 0 0 -45 0 -45 -57 0 c-32
0 -88 -3 -125 -7 l-68 -6 0 52 0 51 -71 0 c-44 0 -68 -4 -64 -10 4 -6 -42 -10
-132 -10 -93 0 -133 3 -123 10 10 7 -11 10 -68 10 -63 0 -91 -5 -119 -20 -21
-11 -49 -20 -63 -20 -14 0 -43 9 -65 20 -30 15 -59 20 -124 20 -84 0 -84 0
-66 -20 29 -32 9 -35 -35 -6 -32 21 -51 26 -101 26 -54 0 -65 -4 -96 -30 -33
-29 -63 -39 -63 -21 0 5 7 14 15 21 27 23 16 30 -49 30 l-65 0 -3 -40 c-4 -52
-21 -52 -32 -1 -8 38 -11 41 -43 41 l-34 0 26 -37 25 -38 -92 -3 c-51 -2 -104
0 -117 3 l-24 6 27 28 c14 15 26 30 26 34 0 4 -36 7 -81 7 -73 0 -80 -2 -74
-17 30 -73 15 -83 -133 -83 l-114 0 6 32 c3 18 11 37 17 43 5 5 51 12 102 16
66 4 29 6 -130 7 -195 2 -222 0 -217 -13 4 -8 18 -18 33 -21 62 -13 71 -21 71
-64 0 -50 -25 -55 -38 -7 -5 21 -15 33 -28 34 -10 1 -54 5 -97 8 -79 7 -98 25
-26 25 33 0 40 3 37 18 -3 15 -18 17 -126 20 l-122 3 0 -24 c0 -53 -88 -93
-150 -67 -33 14 -50 37 -50 69 0 19 -6 21 -75 21 l-75 0 0 -2170z m2630 2121
c28 -8 38 -42 18 -58 -7 -6 -61 -13 -120 -17 l-108 -6 0 45 0 45 93 -1 c50 -1
103 -4 117 -8z m-431 -14 c8 -11 6 -18 -9 -32 -20 -18 -21 -18 -38 -1 -16 16
-16 18 2 32 24 17 31 18 45 1z m-401 -60 c3 -14 -1 -18 -20 -15 -12 2 -24 11
-26 21 -3 14 1 18 20 15 12 -2 24 -11 26 -21z m2317 13 c3 -6 -4 -10 -17 -10
-30 0 -43 -11 -43 -35 0 -22 -31 -33 -48 -16 -7 7 -7 14 2 24 14 18 -4 27 -50
27 -18 0 -28 4 -24 10 3 6 44 10 90 10 46 0 87 -4 90 -10z m-1167 -24 c6 -29
-15 -43 -35 -24 -14 14 -14 20 -3 33 16 19 34 15 38 -9z m-2285 -11 c-1 -5 -8
-14 -17 -20 -18 -11 -42 7 -31 25 8 13 51 9 48 -5z m421 -17 c15 -59 2 -202
-18 -195 -17 6 -19 37 -5 64 10 19 10 33 0 71 -11 46 -8 82 9 82 4 0 10 -10
14 -22z m411 12 c19 -7 18 -8 -5 -14 -14 -3 -61 -7 -105 -8 -67 -3 -80 -6 -83
-20 -3 -16 5 -18 56 -18 80 0 153 -11 146 -21 -3 -5 -40 -9 -82 -9 -89 0 -122
-7 -122 -25 0 -17 46 -25 136 -25 40 0 75 -4 78 -9 6 -8 -118 -21 -211 -21
l-53 0 0 70 c0 54 -4 72 -15 76 -22 9 -18 22 8 27 40 8 231 6 252 -3z m-1145
-95 c0 -94 -12 -125 -24 -64 -8 42 -8 144 1 152 18 19 23 -1 23 -88z m2290
-13 c0 -63 -3 -83 -12 -80 -14 5 -24 148 -13 177 13 33 25 -14 25 -97z m-360
88 c0 -5 -26 -10 -57 -12 l-58 -3 55 -36 c56 -36 87 -66 78 -74 -3 -3 -33 13
-67 35 -34 22 -67 40 -73 40 -6 0 -40 -19 -75 -41 -59 -39 -85 -46 -68 -20 3
6 34 30 68 54 l62 42 -62 3 c-35 2 -63 7 -63 12 0 6 54 10 130 10 75 0 130 -4
130 -10z m1497 -35 c65 -57 99 -103 86 -116 -6 -6 -35 16 -81 63 l-72 73 -58
-62 c-52 -56 -92 -79 -92 -54 0 18 129 141 147 141 10 0 42 -20 70 -45z
m-3531 -40 c25 -42 44 -79 40 -82 -8 -9 -42 24 -67 64 l-21 33 -38 -49 c-42
-54 -60 -68 -60 -51 0 18 85 160 95 160 2 0 25 -34 51 -75z m1607 69 c37 -7
37 -7 37 -54 0 -51 -5 -61 -26 -53 -9 3 -14 20 -14 45 l0 40 -94 -7 c-93 -7
-136 -2 -136 15 0 5 8 11 18 13 27 7 173 8 215 1z m664 -42 c17 -26 36 -58 43
-70 21 -42 -1 -38 -41 8 l-39 45 -18 -22 c-9 -12 -25 -34 -35 -48 -18 -25 -47
-34 -47 -15 0 12 92 149 100 150 3 0 19 -21 37 -48z m922 34 c16 -10 15 -175
-1 -180 -7 -2 -40 -10 -73 -17 -50 -10 -56 -13 -35 -19 23 -7 23 -8 6 -15 -14
-6 -24 -2 -38 15 -12 15 -33 24 -63 28 l-45 5 0 100 0 100 119 -5 c65 -3 123
-8 130 -12z m-441 -2 c80 -9 70 -24 -16 -24 -101 0 -142 -9 -134 -29 10 -27
24 -31 120 -31 60 0 91 -4 87 -10 -4 -6 -55 -10 -119 -10 l-114 0 -6 35 c-4
19 -14 39 -24 44 -14 8 -15 10 -2 15 14 5 60 10 121 14 14 1 54 -1 87 -4z
m-1984 -25 c33 -26 33 -49 0 -88 -29 -35 -67 -40 -113 -16 -48 24 -54 63 -16
100 31 32 91 34 129 4z m-250 -9 c-5 -5 -55 -13 -109 -17 -77 -6 -100 -11
-100 -23 0 -20 36 -28 130 -29 47 -1 75 -5 70 -10 -10 -9 -115 -16 -197 -13
-44 2 -48 4 -48 26 0 14 -7 32 -16 40 -29 30 -5 36 139 36 92 0 138 -3 131
-10z m1934 -14 c6 -29 -15 -43 -35 -24 -14 14 -14 20 -3 33 16 19 34 15 38 -9z
m1496 -27 c5 -25 5 -80 1 -123 l-7 -77 -121 3 -122 3 0 35 c0 42 15 48 133 49
53 1 81 5 77 11 -3 6 -28 10 -56 10 -41 0 -49 3 -49 19 0 12 -9 21 -26 25 -22
6 -32 1 -55 -26 -25 -29 -28 -30 -29 -12 0 22 54 114 68 114 4 0 13 -15 20
-34 19 -52 40 -66 90 -59 33 4 42 10 42 25 0 17 -5 19 -30 16 -21 -3 -30 0
-30 9 0 7 14 16 30 20 21 4 30 11 30 25 0 37 25 12 34 -33z m-3779 11 c0 -22
-39 -19 -43 3 -3 15 1 18 20 15 12 -2 23 -10 23 -18z m729 14 c23 -9 20 -31
-5 -39 -25 -8 -44 7 -36 29 7 17 16 19 41 10z m640 -40 c26 -10 20 -44 -8 -44
-31 0 -56 28 -35 41 17 10 22 11 43 3z m349 -14 c-8 -30 27 -39 45 -12 18 27
48 28 55 2 4 -14 14 -20 35 -20 17 0 34 -4 37 -10 8 -13 -265 -13 -285 0 -12
7 -8 10 14 10 16 0 38 7 48 17 14 12 18 13 18 2 0 -8 6 -4 16 9 19 27 24 28
17 2z m831 -39 c9 -14 -4 -41 -19 -41 -18 0 -28 17 -21 35 6 17 32 20 40 6z
m824 -57 c12 -26 13 -39 6 -52 -15 -23 -49 -30 -40 -8 3 9 9 23 12 31 4 10 -3
18 -20 25 -24 9 -35 38 -20 53 12 12 45 -14 62 -49z m-3118 20 c0 -11 -8 -14
-27 -12 -39 4 -42 28 -4 28 21 0 31 -5 31 -16z m670 -14 c6 -11 21 -20 33 -20
21 -1 21 -1 4 -14 -15 -12 -16 -17 -6 -34 16 -25 6 -49 -25 -64 -20 -9 -30 -8
-51 6 -31 20 -32 49 -2 69 l22 16 -25 1 c-14 0 -32 5 -40 10 -11 7 -5 10 23
10 30 0 37 4 37 20 0 11 4 20 10 20 5 0 14 -9 20 -20z m160 -62 c0 -57 -9 -86
-21 -66 -10 15 -12 99 -3 123 11 27 24 -3 24 -57z m2200 34 c0 -35 -9 -45 -27
-31 -16 14 -17 46 0 52 23 10 27 7 27 -21z m-1873 -13 c60 -34 93 -73 75 -91
-6 -6 -55 -9 -131 -7 -134 4 -158 14 -125 50 28 32 95 79 112 79 8 0 39 -14
69 -31z m287 16 c3 -9 18 -15 36 -15 39 0 39 -19 0 -27 -28 -5 -29 -7 -15 -23
23 -26 19 -59 -10 -72 -31 -14 -72 -2 -89 25 -9 15 -6 22 16 41 l26 24 -39 6
c-48 8 -52 26 -5 26 18 0 39 7 46 15 7 8 16 15 20 15 4 0 10 -7 14 -15z m166
-34 c0 -20 -5 -42 -10 -47 -8 -8 -6 -20 7 -41 15 -26 15 -35 5 -58 -10 -22
-16 -25 -25 -16 -13 13 -17 164 -5 194 12 28 28 10 28 -32z m390 -29 c0 -81
-9 -142 -21 -142 -10 0 -12 203 -3 213 16 16 24 -9 24 -71z m250 58 c50 -6 70
-5 87 6 35 22 43 17 43 -31 0 -41 -2 -45 -27 -51 -84 -17 -95 -46 -22 -54 l44
-5 3 -47 3 -48 -88 0 c-129 0 -165 8 -161 34 2 16 11 22 41 24 47 4 48 20 2
24 -20 2 -34 8 -33 13 2 6 22 9 44 7 23 -2 45 1 48 6 9 15 -22 42 -49 42 -34
0 -55 26 -55 67 0 34 1 35 28 28 15 -3 56 -10 92 -15z m-355 -77 l-6 -33 -68
0 c-38 0 -83 -3 -100 -6 -34 -7 -44 10 -12 21 13 4 20 18 24 46 7 50 13 57 37
41 29 -18 95 -15 111 5 13 15 14 14 17 -12 2 -15 1 -43 -3 -62z m-1805 -15 c0
-71 -7 -101 -21 -92 -10 6 -12 167 -2 177 14 14 23 -20 23 -85z m-376 73 c7
-11 -67 -21 -151 -21 -48 0 -65 -4 -70 -15 -10 -26 5 -30 108 -27 101 3 140
-5 103 -19 -10 -4 -61 -8 -112 -8 -74 -1 -94 -4 -99 -16 -9 -26 4 -30 100 -31
51 0 101 -1 112 -2 18 -2 18 -4 3 -12 -20 -12 -228 -17 -246 -6 -9 6 -11 23
-6 66 6 53 4 59 -15 70 -12 6 -19 15 -16 21 8 11 282 12 289 0z m258 -15 c23
-35 2 -65 -53 -74 -28 -5 -44 -13 -44 -22 0 -8 7 -16 15 -17 62 -8 90 -15 86
-22 -9 -14 -94 -21 -121 -11 -23 9 -26 15 -23 47 3 37 5 38 52 48 48 11 71 31
44 39 -7 3 -31 8 -53 11 -33 6 -37 9 -20 16 25 10 108 0 117 -15z m404 -15
c21 -16 55 -42 74 -59 l35 -30 -77 -7 c-43 -4 -112 -4 -154 0 l-76 7 29 30
c28 29 110 88 123 88 4 0 25 -13 46 -29z m2418 2 c4 -4 -8 -13 -26 -19 -31
-10 -33 -13 -33 -60 0 -41 3 -49 20 -52 94 -15 38 -32 -107 -32 -79 0 -128 4
-128 10 0 6 14 10 30 10 l31 0 -3 57 c-3 55 -4 57 -38 68 -23 8 -30 14 -20 18
22 8 265 8 274 0z m236 -33 c0 -5 -24 -10 -53 -10 -29 0 -58 -5 -64 -11 -7 -7
-20 -8 -30 -5 -17 7 -17 8 1 22 23 16 146 20 146 4z m170 0 c0 -5 -20 -10 -45
-10 -25 0 -57 -7 -70 -16 -15 -10 -32 -13 -42 -9 -16 6 -16 8 5 16 12 4 22 13
22 19 0 6 27 10 65 10 37 0 65 -4 65 -10z m160 -41 c75 -4 110 1 127 20 25 30
33 16 33 -55 l0 -64 -114 0 -113 0 -7 31 c-8 42 -8 94 1 103 4 4 14 -2 23 -13
9 -11 29 -20 50 -22z m-2530 -44 l0 -45 -115 0 -115 0 0 45 0 45 115 0 115 0
0 -45z m201 15 c11 -29 13 -30 72 -30 74 0 137 -10 137 -20 0 -14 -92 -20
-170 -12 -73 7 -75 8 -78 35 -7 59 22 78 39 27z m837 -8 c4 -26 -26 -41 -65
-34 -57 11 -33 65 26 60 29 -2 37 -8 39 -26z m1302 8 c13 -9 13 -11 0 -20 -8
-5 -26 -10 -40 -11 -14 0 -34 -4 -45 -9 -14 -6 -4 -9 38 -9 36 -1 56 -5 52
-11 -10 -16 -208 -13 -230 3 -24 18 -11 37 24 37 16 0 44 3 62 8 32 7 32 7
-21 13 -45 5 -36 6 45 7 55 1 107 -3 115 -8z m-1721 -14 c9 -10 8 -16 -3 -25
-18 -15 -56 -5 -56 14 0 24 41 32 59 11z m-1101 -24 c3 -10 -4 -13 -24 -10
-15 2 -29 9 -32 16 -3 10 4 13 24 10 15 -2 29 -9 32 -16z m650 -417 c20 -19
40 -35 45 -35 4 0 7 -7 7 -15 0 -27 50 -36 234 -42 174 -5 305 2 555 30 l104
12 18 43 c19 45 26 49 51 30 14 -11 15 -21 7 -66 -10 -51 -9 -55 27 -115 52
-86 140 -169 217 -206 35 -17 71 -39 81 -50 18 -20 18 -21 -5 -29 -16 -6 -37
-5 -60 3 -122 43 -226 128 -299 244 l-45 72 -40 -6 c-286 -40 -523 -46 -720
-20 -60 8 -115 15 -121 15 -6 0 -32 -31 -57 -69 -85 -128 -158 -204 -235 -244
-42 -23 -84 -37 -105 -37 -67 0 -52 28 35 69 71 34 129 91 207 205 39 58 71
107 71 110 0 3 -7 6 -15 6 -17 0 -20 16 -5 25 6 4 3 17 -10 35 -25 34 -25 46
-2 59 23 14 19 15 60 -24z m106 -221 c15 -39 -37 -175 -89 -233 -45 -49 -80
-55 -88 -14 -4 22 3 37 36 74 23 26 53 73 66 106 31 75 61 102 75 67z m196 1
c9 -11 11 -35 6 -85 -7 -85 -34 -158 -63 -177 -20 -13 -23 -12 -37 9 -14 22
-14 28 3 73 10 28 24 77 31 110 17 82 34 102 60 70z m195 -3 c14 -10 35 -116
35 -178 0 -66 -16 -90 -52 -74 -26 12 -26 13 -26 128 0 64 2 120 4 124 6 10
26 10 39 0z m231 -62 c49 -95 67 -156 54 -180 -11 -21 -45 -27 -55 -9 -18 28
-80 226 -77 242 8 38 44 14 78 -53z m191 28 c17 -24 56 -76 87 -116 31 -41 56
-80 56 -88 0 -8 -12 -19 -27 -25 -25 -9 -31 -7 -55 22 -49 59 -128 196 -128
223 0 40 31 33 67 -16z m176 -340 c8 -12 2 -45 -23 -129 -25 -81 -31 -114 -22
-117 20 -6 14 -31 -13 -48 -17 -11 -36 -14 -62 -10 -46 7 -47 7 -99 0 -56 -8
-84 20 -84 83 0 103 88 181 160 143 15 -8 19 -5 24 16 4 14 4 34 1 44 -4 12 1
22 12 29 26 16 94 9 106 -11z m-1453 -28 c26 -26 25 -57 -4 -157 -14 -45 -22
-91 -19 -102 5 -20 1 -21 -71 -21 -61 0 -76 3 -76 15 0 8 4 15 9 15 5 0 14 14
20 30 10 30 9 30 -24 30 -28 0 -36 -5 -41 -24 -3 -13 -4 -32 -2 -42 3 -17 -5
-19 -54 -22 -46 -2 -58 0 -58 12 0 8 9 18 20 21 13 4 41 48 80 124 38 74 68
122 83 129 39 19 115 14 137 -8z m160 -55 c16 -14 20 -14 48 2 64 37 120 -17
107 -103 -12 -82 -91 -142 -166 -127 -31 6 -31 5 -33 -57 -1 -24 -4 -25 -65
-28 -74 -3 -89 6 -68 39 28 44 79 229 68 243 -27 33 76 61 109 31z m306 1 c17
-12 22 -12 39 0 10 8 25 14 34 14 23 0 51 -31 51 -58 l0 -25 22 28 c75 96 281
52 209 -45 -19 -27 -47 -37 -99 -39 -22 -1 -32 -5 -29 -13 2 -8 23 -13 55 -13
29 1 52 -2 52 -6 0 -40 -49 -69 -115 -69 -39 0 -52 5 -77 30 -27 28 -30 36
-25 76 3 33 2 43 -6 35 -18 -18 -56 -13 -69 9 -7 11 -16 20 -20 20 -13 0 -48
-134 -38 -144 21 -21 7 -26 -70 -26 -44 0 -80 3 -80 7 0 3 6 14 14 22 23 28
56 153 44 168 -13 16 -11 19 22 32 36 14 63 13 86 -3z m513 -5 c16 -16 22 -17
31 -6 19 23 68 29 95 11 30 -20 33 -61 10 -126 -8 -23 -15 -44 -15 -46 0 -2 7
-1 15 2 19 8 19 -6 0 -33 -31 -44 -119 -37 -130 10 -4 13 3 45 14 75 21 54 13
80 -13 40 -20 -33 -38 -105 -31 -128 6 -19 1 -20 -69 -20 -68 0 -92 9 -67 24
15 10 53 147 47 172 -5 18 0 24 22 32 42 16 70 14 91 -7z m680 4 c37 -19 46
-53 22 -85 -19 -27 -47 -37 -99 -39 -22 -1 -32 -5 -29 -13 2 -8 23 -13 55 -13
29 1 52 -2 52 -6 0 -40 -49 -69 -115 -69 -39 0 -52 5 -77 30 -27 28 -30 36
-25 77 2 25 13 57 24 72 41 55 132 77 192 46z m-1469 -425 c13 -7 21 -7 25 0
3 5 13 10 21 10 19 0 18 -41 -1 -66 -15 -19 -15 -19 -35 5 -12 13 -26 21 -35
17 -29 -11 -48 -97 -24 -111 6 -4 21 3 35 16 19 17 27 20 36 11 9 -9 6 -18
-12 -37 -54 -58 -159 -14 -147 62 13 79 79 124 137 93z m242 -21 c37 -50 -8
-138 -80 -158 -42 -13 -84 0 -101 30 -21 38 3 106 49 137 47 31 105 27 132 -9z
m196 15 c25 -17 29 -46 8 -67 -16 -15 -8 -83 9 -80 12 2 44 98 44 136 l1 28
78 -3 77 -3 0 -30 c0 -20 -5 -31 -17 -33 -11 -2 -18 3 -18 13 0 8 -7 18 -16
22 -17 6 -34 -12 -34 -36 0 -11 3 -11 15 -1 24 20 38 0 26 -33 -11 -30 -21
-33 -39 -15 -9 9 -14 6 -20 -13 -13 -33 12 -38 43 -9 26 25 40 13 31 -26 l-7
-25 -127 3 -127 3 -1 34 c0 19 -5 36 -11 38 -13 5 -25 -39 -17 -61 5 -13 -3
-16 -45 -16 -46 0 -65 10 -42 24 4 3 17 42 27 86 l19 80 60 0 c39 0 69 -6 83
-16z m396 -3 c16 -18 16 -22 0 -77 -10 -33 -17 -67 -16 -76 1 -15 -8 -18 -51
-18 -40 0 -48 3 -39 12 18 18 14 38 -8 38 -15 0 -20 -7 -20 -25 0 -22 -4 -25
-35 -25 -36 0 -47 13 -20 23 8 4 28 34 46 69 17 35 38 71 47 81 20 23 74 22
96 -2z m135 -30 c21 -38 26 -42 32 -25 4 10 8 31 8 47 1 22 6 27 25 27 26 0
40 -12 28 -24 -4 -4 -18 -42 -32 -84 -20 -62 -29 -78 -47 -80 -18 -3 -27 7
-49 50 -26 50 -28 52 -35 28 -4 -14 -7 -37 -8 -52 -1 -24 -5 -28 -31 -28 -16
0 -30 5 -30 10 0 6 4 10 8 10 11 0 42 110 42 145 0 24 3 26 32 23 27 -2 37
-11 57 -47z m259 33 c43 -30 18 -134 -39 -165 -34 -18 -96 -15 -119 6 -27 24
-26 74 3 116 38 57 108 76 155 43z m-1378 -84 l0 -60 -82 0 c-89 0 -115 -9
-105 -34 6 -14 106 -16 1031 -18 l1024 -3 27 -25 c43 -40 58 -78 52 -129 -4
-37 -13 -52 -46 -83 l-40 -38 -441 0 -440 0 0 60 0 60 423 2 c367 3 422 5 422
18 0 13 -122 16 -1020 20 -962 5 -1022 6 -1048 23 -101 66 -82 223 29 257 16
4 71 9 122 9 l92 1 0 -60z m590 -265 c0 -10 10 -15 30 -15 17 0 30 -4 30 -10
0 -6 -30 -10 -70 -10 -40 0 -70 4 -70 10 0 6 14 10 30 10 20 0 30 5 30 15 0 8
5 15 10 15 6 0 10 -7 10 -15z m100 -24 c0 -31 4 -40 23 -46 l22 -8 -22 -4
c-19 -4 -23 -11 -23 -44 0 -21 -4 -39 -10 -39 -6 0 -10 37 -10 90 0 53 4 90
10 90 6 0 10 -17 10 -39z m240 -16 c0 -24 5 -35 15 -35 8 0 15 -4 15 -10 0 -6
-42 -10 -105 -10 -63 0 -105 4 -105 10 0 6 31 10 74 10 58 0 75 3 80 16 12 31
5 34 -64 34 -40 0 -70 4 -70 10 0 6 33 10 80 10 l80 0 0 -35z m-312 -21 c26
-18 28 -37 6 -58 -19 -20 -64 -21 -89 -3 -13 10 -16 21 -11 40 9 37 56 48 94
21z m320 -86 l3 -28 -70 0 c-56 0 -71 -3 -71 -15 0 -12 14 -15 70 -15 40 0 70
-4 70 -10 0 -6 -35 -10 -85 -10 l-85 0 0 35 0 35 70 0 c40 0 70 4 70 10 0 6
-30 10 -70 10 -42 0 -70 4 -70 10 0 7 30 10 83 8 81 -3 82 -3 85 -30z m-368
-28 l0 -30 65 0 c37 0 65 -4 65 -10 0 -6 -33 -10 -80 -10 l-80 0 0 33 c0 19 3
37 7 40 14 15 23 6 23 -23z m-530 -1117 c0 -7 8 -17 19 -22 19 -11 36 -51 21
-51 -5 0 -24 18 -42 41 l-34 40 -24 -37 c-24 -37 -50 -55 -50 -36 0 5 19 38
42 73 l41 64 13 -30 c7 -16 13 -35 14 -42z m158 21 c3 -46 -13 -98 -28 -89 -5
3 -10 21 -10 40 0 34 -15 56 -22 33 -5 -14 -38 -3 -38 12 0 6 14 16 30 21 17
6 30 15 30 21 0 5 8 8 18 6 12 -2 18 -15 20 -44z m1881 -47 l73 -75 -33 -3
c-19 -2 -97 -3 -173 -1 l-139 4 83 83 c64 64 87 82 99 75 9 -5 49 -42 90 -83z
m366 -10 c0 -56 -4 -98 -10 -99 -5 -2 -11 16 -13 38 -3 37 -6 42 -33 48 -40 8
-37 42 4 39 25 -2 27 1 27 38 0 28 4 39 13 37 8 -3 12 -33 12 -101z m73 37 c2
-32 0 -79 -3 -104 -6 -36 -9 -41 -17 -27 -12 22 -23 159 -14 182 13 35 31 8
34 -51z m-3482 11 c7 -51 2 -161 -9 -172 -4 -3 -13 -1 -20 6 -13 13 -16 163
-4 194 11 30 26 18 33 -28z m2478 23 c3 -13 6 -49 6 -80 l0 -58 105 0 c63 0
105 -4 105 -10 0 -15 -223 -13 -238 2 -13 13 -17 149 -5 161 12 12 21 7 27
-15z m800 12 c25 -9 26 -12 20 -62 -3 -30 -2 -70 4 -91 10 -36 10 -38 -11 -35
-17 2 -23 11 -25 41 -3 35 -5 37 -37 37 -32 0 -54 14 -41 27 3 4 22 6 41 5 32
-1 35 1 35 28 0 29 -2 30 -45 30 -25 0 -45 4 -45 9 0 21 62 27 104 11z m524 3
c35 -9 7 -23 -45 -23 -24 0 -43 -4 -43 -8 0 -11 54 -50 85 -62 26 -10 43 -36
31 -47 -3 -3 -15 2 -26 12 -15 14 -23 16 -32 7 -17 -17 9 -42 44 -42 17 0 27
-4 23 -10 -8 -14 -135 -13 -135 1 0 20 21 49 35 49 22 0 18 27 -7 44 -32 23
-43 20 -108 -20 -85 -52 -97 -36 -16 22 l68 49 -43 3 c-24 1 -55 5 -69 8 -23
6 -24 7 -5 14 24 10 210 12 243 3z m-2358 -12 c0 -5 -7 -14 -15 -21 -23 -19
-18 -38 17 -56 35 -18 128 -102 128 -115 0 -18 -17 -8 -89 51 l-74 60 -31 -25
c-45 -37 -118 -85 -130 -85 -20 0 69 81 111 101 40 19 43 24 43 60 0 32 3 39
20 39 11 0 20 -4 20 -9z m-1532 -30 c5 -31 -12 -40 -78 -42 -37 -2 -43 -3 -20
-6 79 -8 104 -14 89 -24 -18 -11 -130 -12 -147 0 -8 4 -12 19 -10 32 2 20 10
25 48 29 l45 5 -42 8 c-72 12 -50 28 35 25 73 -3 77 -4 80 -27z m470 -18 l-3
-48 -122 -3 -123 -3 0 44 c0 24 3 47 7 50 3 4 60 7 125 7 l119 0 -3 -47z m332
32 c88 -46 75 -149 -22 -176 -53 -14 -100 -5 -138 27 -94 80 45 209 160 149z
m1220 5 c0 -6 -31 -10 -72 -10 -105 0 -150 -9 -146 -29 4 -18 41 -28 142 -37
112 -10 55 -25 -64 -18 -81 6 -103 10 -106 23 -3 9 -11 28 -19 43 -7 14 -11
29 -7 32 10 11 272 7 272 -4z m376 -16 c7 -29 0 -152 -10 -161 -10 -11 -16 2
-22 50 -7 52 3 137 16 137 5 0 13 -12 16 -26z m-98 -23 c4 -41 -9 -51 -63 -51
-60 0 -85 10 -91 36 -11 42 11 55 85 52 l66 -3 3 -34z m-840 19 c7 0 10 -4 7
-10 -8 -13 -105 -13 -105 -1 0 12 38 20 65 15 11 -2 26 -4 33 -4z m151 4 c17
-4 28 -10 25 -15 -6 -11 -59 -12 -94 -2 l-25 7 25 7 c35 10 34 10 69 3z m-391
-104 c28 0 32 -3 32 -28 0 -47 -14 -52 -142 -52 l-118 0 0 29 c0 53 23 65 115
57 44 -3 95 -6 113 -6z m2495 -6 c-5 -14 -3 -15 15 -5 22 12 39 0 27 -19 -10
-15 -128 -13 -122 3 2 6 16 11 31 9 16 -2 29 3 32 13 3 8 10 15 15 15 4 0 6
-7 2 -16z m-3708 -4 c-3 -5 -24 -10 -47 -10 -33 0 -38 -2 -29 -14 14 -17 4
-46 -15 -46 -20 0 -29 27 -14 45 11 13 6 15 -34 15 -25 0 -46 5 -46 10 0 6 39
10 96 10 61 0 93 -4 89 -10z m2242 -8 c8 -14 20 -18 42 -14 19 2 31 0 31 -7 0
-7 -32 -11 -95 -11 -64 0 -95 4 -95 11 0 8 14 10 40 6 41 -5 49 0 28 21 -9 9
-7 12 13 12 13 0 29 -8 36 -18z m-1787 -2 c11 -7 -2 -10 -43 -10 -56 0 -57 -1
-51 -25 5 -22 3 -25 -20 -25 -21 0 -26 5 -26 25 0 24 -3 25 -59 25 -33 0 -63
5 -66 10 -8 13 245 13 265 0z m1545 -9 c15 -6 6 -10 -34 -15 -61 -8 -219 3
-227 15 -6 11 233 11 261 0z m1053 -50 c-4 -20 -48 -28 -48 -9 0 20 20 37 37
31 8 -3 13 -13 11 -22z m-370 -4 c4 -20 -25 -34 -40 -19 -15 15 -1 44 19 40
10 -2 19 -11 21 -21z m-1160 -4 c5 -16 -22 -27 -44 -19 -13 5 -14 9 -4 22 15
17 41 15 48 -3z m2298 -4 c37 -22 45 -57 19 -79 -25 -21 -17 -30 29 -30 25 0
48 -4 51 -10 4 -6 -12 -10 -40 -10 -37 0 -46 -3 -42 -15 10 -25 -15 -29 -34
-6 -23 28 -64 25 -64 -4 0 -16 8 -21 35 -23 19 -1 54 -5 78 -8 39 -5 43 -8 40
-31 -4 -35 -26 -41 -34 -9 -6 25 -8 25 -113 28 -78 3 -98 6 -75 12 26 7 30 12
26 32 -3 19 -11 24 -34 24 -17 0 -27 4 -23 10 3 6 30 10 58 10 l52 0 -32 26
c-18 14 -33 30 -33 36 0 17 61 68 82 68 12 0 36 -9 54 -21z m-3050 -11 c9 -14
-23 -38 -42 -31 -8 3 -14 14 -14 24 0 22 44 27 56 7z m1055 -38 c28 0 41 5 49
20 16 29 30 15 30 -30 0 -52 -8 -70 -34 -71 -11 0 -15 -3 -8 -6 12 -5 17 -43
5 -43 -3 0 -15 7 -25 17 -10 9 -21 13 -24 10 -13 -12 18 -37 55 -43 62 -10 68
-16 26 -26 -45 -10 -165 -1 -165 13 0 5 13 9 28 9 25 0 28 3 28 33 0 25 -6 36
-20 43 -22 9 -34 70 -21 103 6 14 9 13 22 -6 12 -17 25 -23 54 -23z m179 -75
c0 -113 -15 -150 -22 -57 -7 71 2 173 13 166 5 -3 9 -52 9 -109z m-1535 72 c3
-12 5 -58 3 -102 -2 -63 -6 -80 -18 -80 -12 0 -16 18 -18 89 -2 49 -1 95 2
103 8 20 25 15 31 -10z m-440 -88 c0 -77 -3 -94 -15 -94 -10 0 -16 12 -18 33
-3 25 -10 35 -30 43 l-27 11 28 14 c21 11 27 22 27 48 0 35 8 48 24 43 7 -2
11 -40 11 -98z m81 66 c7 -41 1 -161 -9 -171 -15 -16 -22 12 -25 107 -3 84 -2
99 12 99 9 0 18 -13 22 -35z m2289 -20 c3 -30 3 -80 0 -110 l-7 -55 -104 0
c-63 0 -104 -4 -104 -10 0 -6 42 -10 106 -10 67 0 103 -4 99 -10 -4 -6 -55
-10 -119 -10 -92 0 -116 3 -127 16 -25 30 14 44 119 44 59 0 91 4 87 10 -3 6
-50 10 -106 10 -64 0 -98 4 -94 10 3 5 46 10 95 10 105 0 120 5 120 36 0 20
-5 24 -30 24 -19 0 -30 5 -30 14 0 21 21 31 31 15 6 -10 9 -9 14 6 27 82 40
85 50 10z m159 -2 l8 -50 101 1 c72 1 101 -3 104 -11 4 -10 -26 -13 -126 -13
l-131 0 0 34 c0 52 11 97 24 93 6 -2 15 -26 20 -54z m1006 -17 c0 -79 -13
-131 -30 -121 -5 3 -10 23 -10 43 0 35 -2 38 -27 37 -21 0 -28 5 -28 20 0 15
7 20 25 20 19 0 26 6 28 25 5 40 10 50 27 50 12 0 15 -14 15 -74z m-3670 44
c6 -11 19 -19 30 -17 10 1 20 -2 22 -8 2 -5 -12 -11 -29 -13 -18 -2 -33 -5
-33 -8 0 -2 16 -27 35 -55 39 -56 42 -69 20 -69 -8 0 -26 18 -40 41 l-26 40
-30 -40 c-16 -23 -34 -41 -39 -41 -19 0 -10 27 24 72 l35 45 -31 9 c-39 12
-49 34 -15 34 13 0 30 7 37 15 17 20 27 19 40 -5z m468 14 c16 -5 22 -13 20
-28 -3 -18 -11 -21 -58 -24 -82 -5 -87 -22 -7 -22 40 0 67 -4 67 -10 0 -7 -30
-10 -82 -8 -75 3 -83 5 -83 23 0 17 10 22 63 30 35 5 60 13 56 17 -4 4 -24 5
-45 2 -21 -4 -46 -3 -56 0 -47 18 65 36 125 20z m482 -50 c0 -17 8 -24 30 -29
28 -6 43 -33 20 -36 -5 -1 -14 -3 -20 -4 -5 -1 -14 -3 -20 -4 -5 0 -10 -11
-10 -24 0 -13 -6 -32 -14 -42 -13 -18 -14 -18 -25 3 -6 11 -11 51 -11 87 0 36
5 76 11 87 11 21 12 21 25 3 8 -10 14 -29 14 -41z m616 11 c60 -9 115 3 121
26 12 46 31 10 36 -66 l2 -40 -102 -9 c-57 -4 -110 -6 -118 -2 -11 4 -15 21
-15 64 0 63 9 85 23 54 6 -14 23 -22 53 -27z m-216 -29 c0 -75 -16 -129 -30
-106 -6 8 -10 43 -10 78 l0 62 -43 0 c-80 0 -197 13 -197 21 0 5 63 9 140 9
l140 0 0 -64z m945 39 c21 -17 25 -25 14 -25 -9 0 -22 -7 -29 -16 -21 -25 7
-45 53 -37 36 6 37 6 31 44 -5 31 -3 40 10 45 25 9 31 -2 17 -32 -9 -20 -9
-29 1 -41 18 -23 -7 -33 -84 -33 l-68 0 0 29 c0 38 11 91 19 91 3 -1 20 -12
36 -25z m970 6 c3 -5 -38 -12 -95 -16 -55 -4 -103 -12 -106 -17 -12 -19 22
-28 113 -28 50 0 95 -4 98 -10 7 -12 14 -11 -115 -19 -84 -5 -105 -9 -105 -21
0 -11 14 -16 60 -17 196 -8 213 -33 23 -33 l-118 0 0 60 c0 47 -4 64 -19 77
-11 9 -18 20 -15 25 7 11 271 10 279 -1z m293 -93 c14 -29 18 -44 10 -47 -15
-5 -40 30 -34 46 3 7 -1 13 -8 13 -7 0 -19 7 -26 15 -7 8 -15 15 -19 15 -4 0
-24 -23 -46 -52 -21 -29 -40 -47 -42 -41 -5 15 16 55 58 113 l32 44 26 -32
c15 -17 37 -51 49 -74z m-2710 86 c32 -9 27 -21 -13 -28 l-35 -7 40 -50 c43
-55 48 -69 25 -69 -8 0 -30 23 -48 50 l-34 50 -31 -50 c-17 -27 -36 -50 -42
-50 -21 0 -9 36 26 80 35 44 36 45 12 48 -12 2 -30 5 -38 9 -41 15 85 31 138
17z m-360 -91 c32 -8 9 -23 -36 -23 -29 0 -32 -2 -26 -24 4 -16 1 -25 -11 -30
-23 -9 -35 1 -35 30 0 20 -5 24 -29 24 -34 0 -50 16 -24 23 28 7 135 7 161 0z
m2292 -28 c8 -22 15 -25 59 -25 72 0 71 -16 0 -24 -73 -7 -231 3 -223 15 3 5
20 9 39 9 43 0 65 9 65 25 0 12 14 20 43 24 4 0 12 -10 17 -24z m-1149 -30 c0
-5 -7 -12 -16 -13 -23 -5 -47 6 -40 19 8 13 56 8 56 -6z m-551 -45 c0 -5 -9
-10 -19 -10 -11 0 -27 -10 -35 -22 l-16 -22 0 25 c0 14 3 29 7 32 10 11 63 8
63 -3z m2093 4 c12 -12 -6 -34 -28 -34 -29 0 -43 19 -24 31 16 10 43 12 52 3z"/>
<path d="M2456 4281 c-7 -11 28 -21 79 -21 22 0 50 3 62 6 43 12 11 24 -62 24
-41 0 -76 -4 -79 -9z"/>
<path d="M3226 4134 c-3 -9 -6 -38 -6 -65 l0 -49 95 0 95 0 0 34 c0 18 -3 48
-6 65 l-6 31 -83 0 c-66 0 -84 -3 -89 -16z"/>
<path d="M910 4125 c-15 -18 -4 -52 19 -60 25 -7 70 11 78 31 13 36 -70 61
-97 29z"/>
<path d="M3993 3953 c-13 -2 -23 -8 -23 -13 0 -13 40 -20 113 -20 50 0 67 3
67 14 0 22 -88 32 -157 19z"/>
<path d="M1304 3899 c-8 -14 21 -43 35 -35 6 4 11 16 11 27 0 21 -34 27 -46 8z"/>
<path d="M1712 3908 l-43 -33 27 -7 c31 -8 44 -3 44 17 0 11 20 25 36 25 3 0
9 -12 14 -26 7 -18 15 -24 26 -20 9 3 22 6 30 6 9 0 12 5 9 10 -8 13 -81 60
-93 60 -5 0 -27 -15 -50 -32z"/>
<path d="M2060 3865 c0 -20 39 -40 52 -27 6 6 8 18 5 26 -8 20 -57 21 -57 1z"/>
<path d="M2860 3921 c-22 -6 -23 -8 -7 -14 27 -10 145 -9 151 2 12 19 -89 27
-144 12z"/>
<path d="M2925 3750 c3 -5 28 -10 56 -10 27 0 49 5 49 10 0 6 -25 10 -56 10
-34 0 -53 -4 -49 -10z"/>
<path d="M2457 3893 c-4 -3 -7 -10 -7 -13 0 -11 57 -20 76 -13 15 6 15 7 -2
20 -19 14 -56 17 -67 6z"/>
<path d="M950 3860 l-35 -29 73 -1 c79 0 94 13 47 44 -34 22 -46 20 -85 -14z"/>
<path d="M3282 3828 c3 -52 4 -53 37 -56 38 -4 51 9 51 50 0 47 -9 58 -52 58
l-39 0 3 -52z"/>
<path d="M4003 3793 c-13 -2 -23 -10 -23 -18 0 -16 31 -25 92 -25 55 0 78 7
78 25 0 21 -82 31 -147 18z"/>
<path d="M1311 3802 c-28 -20 1 -32 74 -32 70 0 99 10 74 26 -18 11 -133 16
-148 6z"/>
<path d="M2585 2607 c-18 -28 -25 -98 -9 -104 9 -3 44 87 44 115 0 20 -19 13
-35 -11z"/>
<path d="M1182 2668 c-11 -15 -42 -75 -42 -83 0 -3 13 -5 28 -5 24 0 29 5 39
42 6 23 9 46 7 50 -7 12 -20 10 -32 -4z"/>
<path d="M1476 2578 c-21 -51 -29 -98 -17 -98 14 0 38 47 46 93 9 47 -11 50
-29 5z"/>
<path d="M2016 2618 c-10 -15 -16 -33 -14 -40 3 -8 11 -2 22 14 10 15 16 33
14 40 -3 8 -11 2 -22 -14z"/>
<path d="M2876 2618 c-10 -15 -16 -33 -14 -40 3 -8 11 -2 22 14 10 15 16 33
14 40 -3 8 -11 2 -22 -14z"/>
<path d="M1654 2209 c-3 -6 -12 -34 -20 -62 -14 -53 -6 -79 15 -53 15 18 41
113 33 120 -9 9 -20 7 -28 -5z"/>
<path d="M1857 2190 c-6 -24 18 -28 27 -4 8 22 8 24 -8 24 -7 0 -16 -9 -19
-20z"/>
<path d="M2242 2185 c-15 -33 -15 -35 2 -35 14 0 26 21 26 46 0 22 -16 16 -28
-11z"/>
<path d="M2644 2183 c-22 -51 -29 -103 -16 -103 16 0 40 50 48 99 8 53 -11 55
-32 4z"/>
<path d="M1907 1814 c-4 -4 -7 -16 -7 -26 0 -15 6 -19 28 -16 19 2 27 9 27 23
0 20 -33 33 -48 19z"/>
<path d="M3270 565 c-29 -30 -51 -57 -48 -61 4 -3 52 -2 108 3 l101 8 -53 53
-54 52 -54 -55z"/>
<path d="M572 603 c-17 -3 -22 -10 -20 -26 3 -20 9 -22 91 -25 88 -3 100 2 79
35 -9 14 -112 25 -150 16z"/>
<path d="M966 571 c-26 -27 -28 -35 -20 -58 27 -78 174 -64 174 16 0 37 -30
62 -82 68 -38 4 -46 1 -72 -26z"/>
<path d="M2476 591 c-15 -23 7 -41 50 -41 37 0 44 3 44 19 0 10 -7 22 -16 25
-24 9 -72 7 -78 -3z"/>
<path d="M1342 480 c-42 -18 -12 -30 73 -30 78 0 118 12 78 24 -40 11 -130 15
-151 6z"/>
<path d="M4052 391 c-8 -4 -12 -19 -10 -32 2 -19 9 -24 33 -24 24 0 31 5 33
24 4 23 -11 41 -33 41 -5 0 -16 -4 -23 -9z"/>
<path d="M2085 331 c-8 -14 11 -23 50 -24 38 -1 50 6 40 22 -8 13 -82 15 -90
2z"/>
<path d="M1733 293 c-7 -2 -13 -13 -13 -24 0 -17 8 -19 80 -19 65 0 82 3 87
16 3 9 0 20 -8 25 -15 9 -125 11 -146 2z"/>
<path d="M197 4353 c-16 -15 -5 -41 21 -52 44 -18 101 8 102 47 0 13 -111 18
-123 5z"/>
<path d="M1302 4348 c-25 -25 -13 -38 33 -38 45 0 50 5 39 34 -7 19 -55 21
-72 4z"/>
<path d="M2148 4353 c6 -2 18 -2 25 0 6 3 1 5 -13 5 -14 0 -19 -2 -12 -5z"/>
<path d="M2830 4325 l0 -36 93 3 92 3 3 33 3 32 -95 0 -96 0 0 -35z"/>
<path d="M3552 4341 c3 -13 18 -17 73 -19 76 -3 123 4 109 17 -5 5 -49 11 -97
14 -78 4 -88 3 -85 -12z"/>
<path d="M3970 4350 c0 -5 22 -10 49 -10 28 0 53 5 56 10 4 6 -15 10 -49 10
-31 0 -56 -4 -56 -10z"/>
<path d="M927 4314 c-19 -19 0 -25 76 -22 46 2 82 7 82 13 0 11 -147 20 -158
9z"/>
<path d="M3240 4281 c0 -12 36 -21 85 -21 51 0 86 10 79 21 -7 12 -164 12
-164 0z"/>
<path d="M1381 101 c-18 -12 -5 -48 20 -56 28 -9 59 4 59 25 0 31 -49 50 -79
31z"/>
<path d="M235 40 c-18 -20 -17 -20 40 -20 57 0 58 0 40 20 -10 11 -28 20 -40
20 -12 0 -30 -9 -40 -20z"/>
<path d="M973 40 c-34 -14 -28 -20 18 -20 28 0 39 4 37 13 -6 16 -27 18 -55 7z"/>
</g>
</svg>
